<?xml version="1.0" encoding="utf-8"?>
<svg xmlns="http://www.w3.org/2000/svg" height="512pt" version="1.1" viewBox="0 0 512 512" width="512pt">
<!--<path d="M 0.00 0.00 L 512.00 0.00 L 512.00 512.00 L 0.00 512.00 L 0.00 0.00 Z" fill="#f5ecd9" opacity="1.00" stroke="#f5ecd9" stroke-width="0.25"/>-->
<path d="M 184.18 34.49 C 188.33 31.23 194.38 29.65 199.01 32.91 C 201.26 34.86 204.23 34.74 207.02 34.96 C 208.18 36.25 208.65 38.01 209.55 39.48 C 212.53 38.98 215.31 37.84 218.06 36.64 C 222.53 35.75 226.01 39.29 229.07 41.97 C 231.75 44.53 235.24 46.73 236.44 50.43 C 237.20 53.41 234.56 55.56 233.54 58.08 C 233.00 60.59 233.50 63.17 233.59 65.70 C 230.43 66.71 228.98 62.82 226.03 63.02 C 223.77 65.39 227.35 68.65 228.28 71.09 C 227.09 73.84 226.76 77.15 227.91 79.95 C 230.19 82.45 234.18 81.21 236.82 83.11 C 238.30 84.26 239.22 85.95 240.26 87.47 C 241.54 86.53 242.76 85.50 243.95 84.44 C 245.18 86.65 246.72 88.74 248.91 90.11 C 250.99 88.89 253.52 89.03 255.62 87.86 C 255.77 87.27 256.06 86.11 256.20 85.52 C 257.65 84.77 258.95 83.77 259.96 82.48 C 262.16 82.63 264.82 83.36 266.60 81.60 C 268.14 80.56 267.82 78.48 268.27 76.90 C 271.73 75.62 273.86 71.40 278.02 72.15 C 280.38 72.72 280.21 75.23 279.96 77.13 C 285.27 77.82 285.79 85.30 291.35 85.74 C 289.86 82.61 288.50 79.37 288.38 75.85 C 292.36 73.28 297.83 71.67 299.66 66.87 C 299.32 61.73 295.44 57.47 295.30 52.20 C 296.91 52.20 298.53 52.37 300.06 52.91 C 306.56 55.10 313.21 56.96 319.52 59.69 C 318.13 63.34 321.99 64.63 324.51 65.89 C 324.41 67.92 324.10 69.95 324.27 71.98 C 325.34 74.18 327.29 75.78 328.94 77.54 C 329.82 77.01 330.71 76.49 331.60 75.98 C 333.98 79.80 335.83 83.92 337.31 88.17 C 337.95 89.60 337.37 91.17 337.24 92.64 C 340.54 95.05 343.55 97.90 345.60 101.49 C 348.76 102.86 351.93 104.24 355.16 105.45 C 355.94 103.72 356.47 101.89 357.20 100.14 C 358.74 98.40 361.00 97.54 362.93 96.32 C 364.56 96.86 366.35 97.16 367.79 98.18 C 369.64 100.58 370.91 103.36 372.24 106.06 C 372.51 108.38 371.15 111.80 374.05 112.91 C 377.61 113.76 381.73 112.79 384.94 115.03 C 387.54 116.72 387.10 120.67 389.92 122.16 C 392.65 123.97 395.27 125.95 397.90 127.90 C 397.05 131.67 394.55 134.75 393.53 138.46 C 392.78 141.23 390.89 143.44 388.58 145.07 C 388.73 145.80 389.03 147.28 389.18 148.01 C 388.09 150.93 388.67 154.07 388.45 157.10 C 388.13 159.64 391.62 160.58 391.54 163.08 C 391.77 164.96 391.29 167.08 392.38 168.76 C 395.56 171.42 399.93 172.22 402.94 175.11 C 405.03 177.20 403.63 181.02 406.39 182.66 C 408.40 184.09 409.60 186.38 409.68 188.85 C 409.46 194.79 412.67 200.65 410.59 206.54 C 410.07 208.41 408.28 210.40 409.50 212.34 C 410.18 212.48 411.53 212.74 412.21 212.87 C 413.62 214.97 414.29 217.52 416.00 219.41 C 420.77 218.90 426.61 216.05 426.63 210.47 C 429.19 211.35 432.74 211.48 433.87 214.41 C 435.16 217.82 435.18 221.57 434.96 225.17 C 436.57 226.98 438.82 227.73 441.14 228.15 C 442.51 230.39 439.11 231.80 437.94 233.26 C 437.31 233.37 436.07 233.58 435.45 233.68 C 434.66 234.80 433.81 235.88 433.22 237.12 C 433.88 239.14 435.24 240.90 435.56 243.03 C 435.83 245.53 433.96 247.70 434.15 250.18 C 434.85 252.60 437.15 254.02 439.26 255.12 C 438.72 258.42 438.38 261.78 437.49 265.02 C 436.18 268.67 433.11 271.36 431.71 274.98 C 432.41 277.66 434.09 280.12 433.94 282.99 C 434.05 285.80 432.77 288.36 431.97 290.98 C 432.25 293.40 433.47 295.59 433.83 298.00 C 434.07 299.93 432.14 300.91 431.07 302.16 C 429.52 303.64 429.05 306.13 426.88 306.94 C 423.40 308.41 422.51 312.42 421.49 315.67 C 420.61 319.16 415.44 318.90 414.45 322.30 C 413.72 327.27 411.14 332.03 407.12 335.09 C 405.15 336.94 406.06 339.68 406.08 342.02 C 405.30 344.42 401.81 344.58 401.24 347.12 C 399.89 351.31 397.94 355.58 394.36 358.34 C 391.51 360.67 387.62 357.51 384.81 359.77 C 381.49 362.11 377.47 363.21 373.43 362.68 C 374.48 359.00 370.01 356.68 371.27 353.07 C 372.14 349.68 373.80 346.50 374.21 342.99 C 374.99 339.88 371.33 337.27 373.02 334.16 C 374.62 330.49 375.20 326.40 377.02 322.85 C 381.78 321.44 386.72 323.71 391.46 322.53 C 392.49 320.28 393.87 318.18 395.95 316.76 C 399.11 315.02 396.21 311.23 397.80 308.58 C 395.63 306.00 393.28 303.58 391.10 301.02 C 393.16 298.06 395.11 294.65 398.64 293.26 C 399.09 291.19 400.78 289.14 399.91 286.96 C 398.55 285.26 396.22 284.69 394.84 283.01 C 394.13 278.28 396.60 273.59 395.04 268.88 C 394.99 266.68 392.45 266.33 390.93 265.45 C 389.33 265.03 387.34 263.26 385.89 264.85 C 384.43 266.23 383.08 267.93 382.71 269.96 C 382.68 271.84 384.01 273.35 384.61 275.06 C 386.00 277.45 383.35 279.58 383.51 282.00 C 383.79 285.94 381.21 289.89 377.63 291.48 C 374.75 292.38 370.66 292.04 369.78 295.75 C 367.61 300.49 372.56 303.64 373.41 307.91 C 372.88 308.35 371.82 309.25 371.30 309.69 C 372.09 314.02 372.83 318.53 372.07 322.91 C 370.18 326.56 366.01 328.17 363.14 330.93 C 365.06 332.76 367.23 334.95 366.69 337.88 C 366.69 341.76 363.50 344.49 360.04 345.53 C 361.23 348.08 362.84 350.43 363.95 353.04 C 365.39 356.96 363.38 360.99 363.54 364.97 C 363.74 368.58 368.75 369.31 368.86 372.99 C 368.63 375.54 367.33 377.84 365.85 379.89 C 363.53 382.96 362.04 386.54 360.53 390.06 C 358.90 393.62 361.75 397.47 360.23 401.11 C 359.34 405.60 355.08 408.09 351.10 409.51 C 347.80 410.65 346.91 414.22 346.34 417.27 C 343.66 418.86 340.55 419.17 337.53 418.51 C 336.24 415.10 335.22 411.53 334.75 407.92 C 335.99 404.24 340.18 402.20 340.61 398.16 C 341.28 395.11 340.37 392.03 338.64 389.52 C 333.15 390.83 331.67 384.14 331.44 380.09 C 330.99 375.36 335.70 372.42 336.20 367.95 C 336.61 364.86 336.09 361.73 335.10 358.80 C 331.98 362.58 331.44 367.70 328.87 371.80 C 327.02 375.15 323.79 379.31 327.08 382.87 C 325.79 384.66 326.13 386.87 326.29 388.93 C 325.26 390.47 324.86 392.26 324.89 394.11 C 324.94 395.85 323.30 397.11 323.27 398.84 C 323.77 400.85 326.18 403.33 324.01 405.14 C 321.45 407.36 318.64 410.25 315.12 410.51 C 313.07 409.31 312.46 406.59 310.89 404.87 C 311.09 404.08 311.47 402.51 311.67 401.72 C 310.01 399.29 306.89 400.27 305.11 402.00 C 304.60 403.52 304.52 405.13 304.40 406.73 C 306.11 407.92 307.97 409.21 308.58 411.33 C 310.00 418.66 306.37 427.79 298.62 429.84 C 297.63 428.57 296.63 427.31 295.70 426.01 C 297.25 426.41 298.80 426.86 300.34 427.35 C 305.57 424.24 307.18 417.78 306.78 412.08 C 306.12 410.19 304.38 408.99 303.03 407.62 C 302.28 404.53 302.63 400.39 306.04 399.11 C 308.12 398.74 311.46 397.96 312.50 400.43 C 313.99 403.27 314.79 406.41 315.88 409.42 C 318.35 407.73 321.09 406.24 322.92 403.82 C 320.56 397.98 323.57 391.97 324.35 386.10 C 325.14 383.28 322.65 380.56 323.71 377.79 C 325.15 374.11 327.53 370.87 328.87 367.15 C 330.51 363.35 331.63 358.96 335.05 356.32 C 337.10 357.02 337.17 359.34 337.56 361.14 C 338.24 366.21 338.77 371.70 336.34 376.42 C 334.85 379.30 335.25 382.59 335.48 385.71 C 337.30 385.26 339.13 384.88 340.96 384.50 C 341.64 389.34 344.17 394.07 343.08 399.05 C 342.31 402.92 338.26 405.13 337.39 408.94 C 337.44 411.73 338.73 414.31 339.59 416.93 C 340.67 416.55 341.79 416.26 342.80 415.71 C 343.66 413.86 343.98 411.80 344.93 410.00 C 348.56 406.79 354.16 406.23 357.08 402.11 C 358.76 398.54 356.53 394.50 357.57 390.81 C 358.91 386.26 361.43 382.18 364.30 378.45 C 365.35 376.87 366.89 375.27 366.71 373.23 C 365.52 370.03 362.28 368.10 361.08 364.93 C 361.43 361.34 363.22 357.60 361.49 354.10 C 360.51 351.12 357.54 348.56 358.16 345.25 C 359.87 343.59 362.10 342.50 363.57 340.60 C 364.02 339.09 364.14 337.52 364.38 335.98 C 362.65 335.19 360.58 334.69 359.49 333.00 C 361.21 327.88 366.98 326.09 369.83 321.93 C 370.67 316.32 368.79 310.61 370.22 305.04 C 366.11 302.33 366.99 296.48 368.69 292.58 C 370.62 288.57 376.40 291.18 379.10 288.02 C 381.65 285.06 381.61 280.81 382.69 277.22 C 381.04 273.98 379.21 269.93 381.48 266.51 C 383.04 264.11 385.51 260.64 388.84 262.08 C 391.86 263.50 396.37 264.16 397.29 267.91 C 398.80 272.17 397.19 276.73 398.10 281.06 C 398.87 284.06 402.35 285.20 403.54 287.95 C 403.53 291.18 401.60 294.22 399.03 296.09 C 397.44 297.52 395.18 298.68 394.72 300.95 C 396.20 303.25 398.59 304.77 400.09 307.05 C 400.42 310.00 400.35 313.02 399.84 315.95 C 397.44 318.54 395.19 321.28 392.78 323.85 C 388.42 326.06 383.27 324.33 378.59 325.09 C 377.88 328.49 376.83 331.80 375.45 334.99 C 378.32 340.62 376.59 346.99 374.53 352.55 C 372.85 355.64 375.83 358.43 378.11 360.14 C 381.03 359.99 383.01 357.61 385.09 355.87 C 387.55 356.53 390.25 357.94 392.76 356.77 C 397.13 353.91 399.67 348.62 399.02 343.41 C 400.40 343.49 402.20 344.55 403.27 343.18 C 404.07 340.69 403.42 337.92 404.48 335.49 C 405.61 333.37 407.52 331.84 409.07 330.05 C 411.78 327.36 410.94 323.00 413.07 319.98 C 414.47 318.37 416.40 317.35 417.93 315.88 C 419.43 312.97 419.89 309.57 421.82 306.86 C 422.99 304.87 425.38 304.32 427.35 303.45 C 428.37 302.15 429.47 300.90 430.28 299.45 C 431.34 297.76 430.22 295.81 430.07 294.03 C 429.04 290.62 430.94 287.31 430.88 283.90 C 430.67 280.52 429.02 277.42 428.86 274.04 C 430.59 271.11 433.32 268.89 434.91 265.85 C 436.14 263.05 436.15 259.91 436.53 256.93 C 434.60 254.88 432.16 252.90 431.65 249.97 C 431.59 247.55 433.45 245.45 433.20 243.04 C 432.44 240.73 430.86 238.82 429.51 236.85 C 430.87 234.03 432.49 231.34 434.31 228.78 C 431.37 227.09 433.11 223.57 432.78 220.87 C 432.83 217.78 430.76 215.30 428.72 213.22 C 426.90 218.53 421.05 221.18 415.97 222.40 C 413.40 221.46 412.88 218.48 411.76 216.31 C 409.89 214.94 406.79 213.91 407.03 211.06 C 407.51 208.00 408.77 205.09 408.84 201.96 C 409.23 197.46 406.59 193.39 406.98 188.90 C 407.48 186.36 405.20 184.85 403.84 183.12 C 402.02 181.22 402.38 178.24 400.88 176.18 C 397.85 173.26 393.41 172.47 390.29 169.69 C 388.81 167.51 389.29 164.67 388.96 162.18 C 387.75 160.65 385.93 159.21 386.23 157.04 C 386.29 152.70 387.01 148.33 385.98 144.05 C 391.78 141.54 392.50 134.85 394.94 129.77 C 393.57 126.10 389.40 124.72 386.75 122.14 C 385.60 120.58 385.09 118.64 383.90 117.13 C 380.83 114.57 376.72 115.81 373.15 115.19 C 370.95 113.96 369.51 111.59 369.82 109.05 C 370.22 105.13 367.67 101.72 364.91 99.27 C 362.79 98.60 360.92 99.92 359.25 101.02 C 358.61 102.93 358.78 105.70 356.75 106.77 C 351.32 107.69 345.66 104.96 342.31 100.71 C 340.40 98.27 338.28 95.99 335.95 93.94 C 335.52 88.91 334.23 83.96 331.54 79.64 C 330.92 80.51 330.30 81.37 329.69 82.24 C 327.76 79.24 325.04 76.89 322.94 74.04 C 321.42 72.06 322.11 69.39 321.92 67.09 C 320.68 66.33 319.45 65.57 318.23 64.80 C 317.45 63.07 317.25 60.44 314.94 60.13 C 309.29 58.59 303.67 56.96 298.11 55.12 C 299.25 59.50 302.90 63.37 302.11 68.09 C 299.80 72.57 294.85 74.76 290.69 77.19 C 291.43 80.70 292.76 84.03 294.33 87.24 C 293.12 87.86 291.91 89.53 290.45 88.52 C 285.41 86.06 282.92 80.48 277.88 77.98 C 277.71 76.67 277.54 75.35 277.37 74.04 C 275.52 74.93 273.50 75.64 271.97 77.06 C 270.42 79.19 270.12 82.26 267.66 83.68 C 265.43 85.46 262.43 85.02 259.83 85.72 C 258.25 87.15 257.08 88.98 255.45 90.37 C 253.52 91.42 251.27 91.95 249.08 91.95 C 246.90 91.11 245.63 88.93 244.03 87.36 C 242.67 88.20 241.32 89.03 239.97 89.86 C 238.12 88.10 236.43 86.17 234.47 84.54 C 231.95 82.95 227.89 84.72 226.08 81.80 C 223.81 78.62 225.69 74.75 225.60 71.25 C 224.93 68.88 223.82 66.60 222.35 64.62 C 219.27 61.65 213.20 61.10 212.97 55.92 C 216.50 57.82 219.55 60.48 223.06 62.42 C 225.62 61.38 228.36 61.20 231.06 61.80 C 231.44 57.24 232.34 52.77 233.19 48.29 C 229.47 45.55 226.52 41.86 222.62 39.38 C 220.31 38.02 217.83 39.24 215.84 40.54 C 213.60 40.88 211.34 41.43 209.07 41.26 C 207.22 40.10 206.70 37.09 204.12 37.23 C 199.73 37.15 196.51 32.89 192.03 33.70 C 188.61 34.03 185.96 37.48 182.39 36.54 C 178.69 35.97 174.80 34.78 171.12 36.08 C 168.28 36.92 166.07 38.95 163.99 40.97 C 162.90 41.11 161.81 41.25 160.73 41.40 C 160.75 46.91 154.40 47.56 150.66 49.76 C 148.08 50.69 147.62 53.59 146.88 55.88 C 148.58 56.31 150.29 56.76 151.99 57.22 C 149.37 58.22 146.53 58.11 143.78 58.04 C 143.70 57.54 143.55 56.55 143.47 56.06 C 144.64 52.92 145.72 49.49 148.14 47.08 C 151.11 46.12 154.42 45.89 157.00 43.97 C 158.58 42.70 159.11 40.64 160.07 38.93 C 164.41 39.07 166.67 34.66 170.62 33.63 C 175.05 31.54 179.74 33.65 184.18 34.49 Z" fill="#584e2a" opacity="1.00" stroke="#584e2a" stroke-width="0.25"/>
<path d="M 182.39 36.54 C 185.96 37.48 188.61 34.03 192.03 33.70 C 196.51 32.89 199.73 37.15 204.12 37.23 C 206.70 37.09 207.22 40.10 209.07 41.26 C 211.34 41.43 213.60 40.88 215.84 40.54 C 217.83 39.24 220.31 38.02 222.62 39.38 C 226.52 41.86 229.47 45.55 233.19 48.29 C 232.34 52.77 231.44 57.24 231.06 61.80 C 228.36 61.20 225.62 61.38 223.06 62.42 C 219.55 60.48 216.50 57.82 212.97 55.92 C 213.20 61.10 219.27 61.65 222.35 64.62 C 223.82 66.60 224.93 68.88 225.60 71.25 C 225.69 74.75 223.81 78.62 226.08 81.80 C 227.89 84.72 231.95 82.95 234.47 84.54 C 236.43 86.17 238.12 88.10 239.97 89.86 C 241.32 89.03 242.67 88.20 244.03 87.36 C 245.63 88.93 246.90 91.11 249.08 91.95 C 251.27 91.95 253.52 91.42 255.45 90.37 C 257.08 88.98 258.25 87.15 259.83 85.72 C 262.43 85.02 265.43 85.46 267.66 83.68 C 270.12 82.26 270.42 79.19 271.97 77.06 C 273.50 75.64 275.52 74.93 277.37 74.04 C 277.54 75.35 277.71 76.67 277.88 77.98 C 282.92 80.48 285.41 86.06 290.45 88.52 C 291.91 89.53 293.12 87.86 294.33 87.24 C 292.76 84.03 291.43 80.70 290.69 77.19 C 294.85 74.76 299.80 72.57 302.11 68.09 C 302.90 63.37 299.25 59.50 298.11 55.12 C 303.67 56.96 309.29 58.59 314.94 60.13 C 317.25 60.44 317.45 63.07 318.23 64.80 C 319.45 65.57 320.68 66.33 321.92 67.09 C 322.11 69.39 321.42 72.06 322.94 74.04 C 325.04 76.89 327.76 79.24 329.69 82.24 C 330.30 81.37 330.92 80.51 331.54 79.64 C 334.23 83.96 335.52 88.91 335.95 93.94 C 338.28 95.99 340.40 98.27 342.31 100.71 C 345.66 104.96 351.32 107.69 356.75 106.77 C 358.78 105.70 358.61 102.93 359.25 101.02 C 360.92 99.92 362.79 98.60 364.91 99.27 C 367.67 101.72 370.22 105.13 369.82 109.05 C 369.51 111.59 370.95 113.96 373.15 115.19 C 376.72 115.81 380.83 114.57 383.90 117.13 C 385.09 118.64 385.60 120.58 386.75 122.14 C 389.40 124.72 393.57 126.10 394.94 129.77 C 392.50 134.85 391.78 141.54 385.98 144.05 C 387.01 148.33 386.29 152.70 386.23 157.04 C 385.93 159.21 387.75 160.65 388.96 162.18 C 389.29 164.67 388.81 167.51 390.29 169.69 C 393.41 172.47 397.85 173.26 400.88 176.18 C 402.38 178.24 402.02 181.22 403.84 183.12 C 405.20 184.85 407.48 186.36 406.98 188.90 C 406.59 193.39 409.23 197.46 408.84 201.96 C 408.77 205.09 407.51 208.00 407.03 211.06 C 406.79 213.91 409.89 214.94 411.76 216.31 C 412.88 218.48 413.40 221.46 415.97 222.40 C 421.05 221.18 426.90 218.53 428.72 213.22 C 430.76 215.30 432.83 217.78 432.78 220.87 C 433.11 223.57 431.37 227.09 434.31 228.78 C 432.49 231.34 430.87 234.03 429.51 236.85 C 430.86 238.82 432.44 240.73 433.20 243.04 C 433.45 245.45 431.59 247.55 431.65 249.97 C 432.16 252.90 434.60 254.88 436.53 256.93 C 436.15 259.91 436.14 263.05 434.91 265.85 C 433.32 268.89 430.59 271.11 428.86 274.04 C 429.02 277.42 430.67 280.52 430.88 283.90 C 430.94 287.31 429.04 290.62 430.07 294.03 C 430.22 295.81 431.34 297.76 430.28 299.45 C 429.47 300.90 428.37 302.15 427.35 303.45 C 425.38 304.32 422.99 304.87 421.82 306.86 C 419.89 309.57 419.43 312.97 417.93 315.88 C 416.40 317.35 414.47 318.37 413.07 319.98 C 410.94 323.00 411.78 327.36 409.07 330.05 C 407.52 331.84 405.61 333.37 404.48 335.49 C 403.42 337.92 404.07 340.69 403.27 343.18 C 402.20 344.55 400.40 343.49 399.02 343.41 C 399.67 348.62 397.13 353.91 392.76 356.77 C 390.25 357.94 387.55 356.53 385.09 355.87 C 383.01 357.61 381.03 359.99 378.11 360.14 C 375.83 358.43 372.85 355.64 374.53 352.55 C 376.59 346.99 378.32 340.62 375.45 334.99 C 376.83 331.80 377.88 328.49 378.59 325.09 C 383.27 324.33 388.42 326.06 392.78 323.85 C 395.19 321.28 397.44 318.54 399.84 315.95 C 400.35 313.02 400.42 310.00 400.09 307.05 C 398.59 304.77 396.20 303.25 394.72 300.95 C 395.18 298.68 397.44 297.52 399.03 296.09 C 401.60 294.22 403.53 291.18 403.54 287.95 C 402.35 285.20 398.87 284.06 398.10 281.06 C 397.19 276.73 398.80 272.17 397.29 267.91 C 396.37 264.16 391.86 263.50 388.84 262.08 C 385.51 260.64 383.04 264.11 381.48 266.51 C 379.21 269.93 381.04 273.98 382.69 277.22 C 381.61 280.81 381.65 285.06 379.10 288.02 C 376.40 291.18 370.62 288.57 368.69 292.58 C 366.99 296.48 366.11 302.33 370.22 305.04 C 368.79 310.61 370.67 316.32 369.83 321.93 C 366.98 326.09 361.21 327.88 359.49 333.00 C 360.58 334.69 362.65 335.19 364.38 335.98 C 364.14 337.52 364.02 339.09 363.57 340.60 C 362.10 342.50 359.87 343.59 358.16 345.25 C 357.54 348.56 360.51 351.12 361.49 354.10 C 363.22 357.60 361.43 361.34 361.08 364.93 C 362.28 368.10 365.52 370.03 366.71 373.23 C 366.89 375.27 365.35 376.87 364.30 378.45 C 361.43 382.18 358.91 386.26 357.57 390.81 C 356.53 394.50 358.76 398.54 357.08 402.11 C 354.16 406.23 348.56 406.79 344.93 410.00 C 343.98 411.80 343.66 413.86 342.80 415.71 C 341.79 416.26 340.67 416.55 339.59 416.93 C 338.73 414.31 337.44 411.73 337.39 408.94 C 338.26 405.13 342.31 402.92 343.08 399.05 C 344.17 394.07 341.64 389.34 340.96 384.50 C 339.13 384.88 337.30 385.26 335.48 385.71 C 335.25 382.59 334.85 379.30 336.34 376.42 C 338.77 371.70 338.24 366.21 337.56 361.14 C 337.17 359.34 337.10 357.02 335.05 356.32 C 331.63 358.96 330.51 363.35 328.87 367.15 C 327.53 370.87 325.15 374.11 323.71 377.79 C 322.65 380.56 325.14 383.28 324.35 386.10 C 323.57 391.97 320.56 397.98 322.92 403.82 C 321.09 406.24 318.35 407.73 315.88 409.42 C 314.79 406.41 313.99 403.27 312.50 400.43 C 311.46 397.96 308.12 398.74 306.04 399.11 C 302.63 400.39 302.28 404.53 303.03 407.62 C 304.38 408.99 306.12 410.19 306.78 412.08 C 307.18 417.78 305.57 424.24 300.34 427.35 C 298.80 426.86 297.25 426.41 295.70 426.01 C 296.63 427.31 297.63 428.57 298.62 429.84 C 298.71 430.02 298.88 430.39 298.97 430.58 C 297.60 434.40 296.12 438.29 293.65 441.55 C 291.91 444.07 288.52 443.85 285.98 444.99 C 285.14 446.46 284.85 448.15 284.37 449.75 C 281.31 451.01 278.24 449.81 275.20 449.23 C 271.71 451.37 270.38 455.95 270.16 459.83 C 271.46 462.12 273.52 463.90 274.70 466.26 C 271.93 471.56 266.19 474.42 263.04 479.48 C 259.38 478.56 255.83 476.76 252.01 476.76 C 244.65 479.78 236.63 485.50 228.44 482.01 C 228.77 481.55 229.44 480.64 229.77 480.18 C 229.08 477.85 228.49 475.50 228.06 473.12 C 229.45 471.81 230.70 470.38 231.91 468.91 C 228.04 466.42 223.59 465.14 219.01 465.00 C 214.98 465.51 214.20 460.57 211.09 459.22 C 209.65 459.68 208.27 460.30 206.88 460.90 C 204.40 459.63 201.62 456.97 198.73 458.70 C 195.03 460.88 191.56 463.80 187.04 463.98 C 186.94 462.16 186.84 460.34 186.75 458.53 C 184.33 458.27 181.39 458.20 180.15 455.69 C 176.45 449.54 176.39 441.95 176.96 435.01 C 176.99 429.72 183.24 427.21 183.29 421.98 C 183.63 418.00 179.94 415.08 180.07 411.15 C 180.30 407.80 181.11 404.52 181.23 401.16 C 174.45 402.22 167.67 399.67 162.16 395.87 C 158.57 393.19 162.31 389.24 162.80 386.02 C 159.27 383.74 155.71 381.02 154.00 377.06 C 152.57 373.73 152.87 369.54 149.99 366.96 C 148.82 365.44 146.78 364.12 147.03 361.96 C 147.02 358.61 151.24 359.43 153.37 358.35 C 155.02 355.56 155.99 351.73 154.28 348.76 C 152.10 345.24 152.63 340.96 152.21 337.01 C 151.89 334.58 155.11 332.67 153.76 330.25 C 153.12 328.34 151.23 327.46 149.60 326.55 C 148.45 324.66 147.75 322.31 145.80 321.06 C 142.44 320.51 139.34 322.33 136.10 322.86 C 134.72 322.34 133.83 321.03 132.67 320.18 C 130.53 318.17 127.08 318.10 125.39 315.52 C 122.56 311.91 119.10 308.72 114.94 306.71 C 113.17 306.54 111.51 307.40 109.85 307.87 C 107.73 304.73 107.32 300.93 108.14 297.28 C 110.90 295.08 112.46 291.87 114.23 288.90 C 112.91 287.48 111.54 286.10 110.31 284.60 C 107.46 281.32 109.29 275.99 105.92 273.01 C 103.38 270.94 99.93 272.15 96.98 271.86 C 94.64 270.38 93.10 267.94 91.07 266.08 C 88.02 262.96 84.26 259.61 83.99 254.96 C 84.19 250.96 89.38 251.02 91.35 248.24 C 94.72 243.77 93.83 237.81 93.52 232.59 C 88.16 228.38 88.83 221.13 86.82 215.28 C 85.76 211.86 81.94 208.99 83.43 205.12 C 84.86 199.84 89.87 197.01 92.93 192.82 C 94.16 191.02 96.18 190.09 97.99 189.02 C 98.39 186.15 100.19 184.03 102.51 182.44 C 105.08 180.93 103.26 176.46 106.37 175.58 C 110.08 173.65 114.14 178.75 117.49 175.45 C 120.24 173.68 119.13 170.30 118.21 167.83 C 121.32 164.29 124.64 160.61 126.03 156.01 C 126.27 151.94 122.02 149.10 122.18 145.00 C 122.18 142.46 124.37 140.82 125.92 139.12 C 124.99 137.01 123.66 134.48 125.45 132.39 C 127.36 128.99 131.63 130.02 134.84 129.53 C 137.07 126.18 137.42 121.92 137.88 118.00 C 138.40 115.25 136.53 113.02 135.30 110.78 C 133.75 108.25 132.74 105.39 130.93 103.02 C 128.78 100.40 125.22 100.01 122.08 99.64 C 120.99 98.20 119.94 96.73 118.88 95.26 C 120.48 94.41 122.24 93.78 123.61 92.56 C 125.36 89.64 125.93 85.98 128.63 83.67 C 132.65 79.99 136.70 76.15 139.16 71.19 C 141.57 65.74 149.15 66.74 152.31 62.05 C 153.28 60.66 153.06 58.91 152.87 57.33 C 151.89 58.46 150.92 59.59 150.00 60.75 L 150.81 59.30 C 148.33 58.76 145.82 58.22 143.26 58.32 C 143.33 57.56 143.40 56.81 143.47 56.06 C 143.55 56.55 143.70 57.54 143.78 58.04 C 146.53 58.11 149.37 58.22 151.99 57.22 C 150.29 56.76 148.58 56.31 146.88 55.88 C 147.62 53.59 148.08 50.69 150.66 49.76 C 154.40 47.56 160.75 46.91 160.73 41.40 C 161.81 41.25 162.90 41.11 163.99 40.97 C 166.07 38.95 168.28 36.92 171.12 36.08 C 174.80 34.78 178.69 35.97 182.39 36.54 Z" fill="#a19955" opacity="1.00" stroke="#a19955" stroke-width="0.25"/>
<path d="M 150.00 60.75 C 150.92 59.59 151.89 58.46 152.87 57.33 C 153.06 58.91 153.28 60.66 152.31 62.05 C 149.15 66.74 141.57 65.74 139.16 71.19 C 136.70 76.15 132.65 79.99 128.63 83.67 C 125.93 85.98 125.36 89.64 123.61 92.56 C 122.24 93.78 120.48 94.41 118.88 95.26 C 119.94 96.73 120.99 98.20 122.08 99.64 C 125.22 100.01 128.78 100.40 130.93 103.02 C 132.74 105.39 133.75 108.25 135.30 110.78 C 136.53 113.02 138.40 115.25 137.88 118.00 C 137.42 121.92 137.07 126.18 134.84 129.53 C 131.63 130.02 127.36 128.99 125.45 132.39 C 123.66 134.48 124.99 137.01 125.92 139.12 C 124.37 140.82 122.18 142.46 122.18 145.00 C 122.02 149.10 126.27 151.94 126.03 156.01 C 124.64 160.61 121.32 164.29 118.21 167.83 C 119.13 170.30 120.24 173.68 117.49 175.45 C 114.14 178.75 110.08 173.65 106.37 175.58 C 103.26 176.46 105.08 180.93 102.51 182.44 C 100.19 184.03 98.39 186.15 97.99 189.02 C 96.18 190.09 94.16 191.02 92.93 192.82 C 89.87 197.01 84.86 199.84 83.43 205.12 C 81.94 208.99 85.76 211.86 86.82 215.28 C 88.83 221.13 88.16 228.38 93.52 232.59 C 93.83 237.81 94.72 243.77 91.35 248.24 C 89.38 251.02 84.19 250.96 83.99 254.96 C 84.26 259.61 88.02 262.96 91.07 266.08 C 93.10 267.94 94.64 270.38 96.98 271.86 C 99.93 272.15 103.38 270.94 105.92 273.01 C 109.29 275.99 107.46 281.32 110.31 284.60 C 111.54 286.10 112.91 287.48 114.23 288.90 C 112.46 291.87 110.90 295.08 108.14 297.28 C 107.32 300.93 107.73 304.73 109.85 307.87 C 111.51 307.40 113.17 306.54 114.94 306.71 C 119.10 308.72 122.56 311.91 125.39 315.52 C 127.08 318.10 130.53 318.17 132.67 320.18 C 133.83 321.03 134.72 322.34 136.10 322.86 C 139.34 322.33 142.44 320.51 145.80 321.06 C 147.75 322.31 148.45 324.66 149.60 326.55 C 151.23 327.46 153.12 328.34 153.76 330.25 C 155.11 332.67 151.89 334.58 152.21 337.01 C 152.63 340.96 152.10 345.24 154.28 348.76 C 155.99 351.73 155.02 355.56 153.37 358.35 C 151.24 359.43 147.02 358.61 147.03 361.96 C 146.78 364.12 148.82 365.44 149.99 366.96 C 152.87 369.54 152.57 373.73 154.00 377.06 C 155.71 381.02 159.27 383.74 162.80 386.02 C 162.31 389.24 158.57 393.19 162.16 395.87 C 167.67 399.67 174.45 402.22 181.23 401.16 C 181.11 404.52 180.30 407.80 180.07 411.15 C 179.94 415.08 183.63 418.00 183.29 421.98 C 183.24 427.21 176.99 429.72 176.96 435.01 C 176.39 441.95 176.45 449.54 180.15 455.69 C 181.39 458.20 184.33 458.27 186.75 458.53 C 186.84 460.34 186.94 462.16 187.04 463.98 C 191.56 463.80 195.03 460.88 198.73 458.70 C 201.62 456.97 204.40 459.63 206.88 460.90 C 208.27 460.30 209.65 459.68 211.09 459.22 C 214.20 460.57 214.98 465.51 219.01 465.00 C 223.59 465.14 228.04 466.42 231.91 468.91 C 230.70 470.38 229.45 471.81 228.06 473.12 C 228.49 475.50 229.08 477.85 229.77 480.18 C 229.44 480.64 228.77 481.55 228.44 482.01 C 236.63 485.50 244.65 479.78 252.01 476.76 C 255.83 476.76 259.38 478.56 263.04 479.48 C 266.19 474.42 271.93 471.56 274.70 466.26 C 273.52 463.90 271.46 462.12 270.16 459.83 C 270.38 455.95 271.71 451.37 275.20 449.23 C 278.24 449.81 281.31 451.01 284.37 449.75 C 284.85 448.15 285.14 446.46 285.98 444.99 C 288.52 443.85 291.91 444.07 293.65 441.55 C 296.12 438.29 297.60 434.40 298.97 430.58 C 299.60 432.71 300.07 434.88 300.47 437.07 C 297.57 441.85 293.44 446.45 287.80 447.81 C 287.20 453.83 279.74 454.21 275.73 451.31 C 273.07 453.20 271.88 456.85 272.81 459.95 C 274.30 462.63 276.68 464.86 277.20 468.02 C 272.82 471.37 268.73 475.33 266.03 480.18 C 264.90 482.13 263.02 483.88 260.64 483.88 C 260.61 483.12 260.56 481.59 260.53 480.82 C 257.69 480.15 254.87 479.28 251.95 479.12 C 246.97 480.37 243.17 484.53 237.94 485.11 C 233.62 486.10 227.26 486.05 225.51 481.05 C 225.21 476.83 225.87 472.40 228.41 468.99 C 225.30 468.40 222.30 467.21 219.09 467.52 C 215.58 467.82 213.31 464.78 211.21 462.49 C 208.36 464.63 205.40 462.33 202.92 460.89 C 200.12 459.61 197.48 461.63 195.33 463.20 C 192.03 465.84 187.58 465.93 183.57 466.45 C 184.09 461.23 178.21 458.99 176.48 454.60 C 173.68 447.32 172.93 438.99 175.28 431.49 C 176.13 428.20 179.60 426.41 180.32 423.10 C 180.97 420.09 178.20 417.88 177.85 415.05 C 177.66 413.36 177.51 411.68 177.47 409.99 C 177.45 407.68 179.25 405.59 178.63 403.25 C 175.98 405.47 173.18 402.93 170.41 402.43 C 167.09 401.27 162.79 401.67 160.43 398.63 C 159.08 396.97 157.72 395.14 157.41 392.98 C 156.97 390.65 158.81 388.91 159.73 386.98 C 154.57 384.10 151.18 378.77 150.13 373.02 C 149.35 369.40 145.53 367.50 144.58 363.96 C 143.94 361.57 145.58 359.51 146.89 357.71 C 148.50 357.64 150.10 357.56 151.71 357.50 C 152.29 355.34 152.84 353.12 152.69 350.87 C 152.13 349.17 151.06 347.70 150.50 346.01 C 150.49 343.63 150.61 341.26 150.46 338.89 C 150.11 335.77 152.11 332.70 150.64 329.67 C 147.85 329.07 147.23 325.81 145.87 323.72 C 142.49 323.17 139.08 324.04 136.90 326.82 C 134.35 324.86 131.87 322.78 129.90 320.23 C 127.92 319.73 125.28 319.96 124.14 317.90 C 121.42 313.74 117.61 308.68 111.91 310.08 C 107.57 310.74 106.47 305.72 104.81 302.83 C 105.01 300.34 106.37 297.76 104.39 295.57 C 108.05 295.43 110.01 292.21 110.22 288.85 C 109.07 286.17 106.11 284.25 106.32 281.05 C 106.36 278.52 105.70 275.90 103.69 274.21 C 101.30 272.74 98.60 274.46 96.09 274.07 C 92.64 271.28 90.22 267.06 86.04 265.25 C 84.61 261.18 79.82 257.74 81.99 253.04 C 82.70 249.76 86.21 249.11 88.63 247.55 C 91.07 244.61 91.14 240.45 90.87 236.83 C 90.81 232.92 87.54 230.18 86.67 226.52 C 85.57 222.30 85.45 217.76 83.37 213.83 C 82.37 212.04 80.54 210.87 79.62 209.04 C 79.85 204.13 82.58 199.85 84.65 195.54 C 87.95 196.26 89.87 193.26 90.81 190.60 C 93.41 189.39 95.99 187.86 96.96 184.98 C 97.71 181.81 102.33 181.49 102.12 177.98 C 102.30 173.55 108.14 171.93 111.65 173.47 C 112.94 173.59 114.82 175.12 115.73 173.58 C 117.67 171.67 114.93 169.18 115.49 166.99 C 118.51 163.37 122.16 159.81 123.02 154.97 C 122.49 151.73 119.52 149.40 119.48 146.02 C 119.28 143.30 120.89 140.97 122.51 138.97 C 122.21 136.22 121.87 133.16 123.73 130.83 C 125.82 127.64 130.05 127.82 133.41 127.50 C 134.19 122.56 137.05 116.89 133.94 112.26 C 132.18 109.84 131.29 106.95 129.76 104.41 C 127.59 101.57 123.71 101.72 120.49 101.69 C 118.80 99.38 115.40 97.34 116.78 94.01 C 118.33 92.45 121.36 93.14 122.31 90.90 C 122.49 89.36 122.39 87.80 122.50 86.26 C 126.11 84.49 127.71 80.54 131.39 78.90 C 131.40 77.89 131.41 76.88 131.42 75.88 C 134.91 75.57 137.09 72.60 137.69 69.36 C 140.09 64.26 146.73 64.65 150.00 60.75 Z" fill="#584e2a" opacity="1.00" stroke="#584e2a" stroke-width="0.25"/>
<path d="M 318.99 413.00 C 320.42 411.33 322.48 413.26 324.03 413.71 C 326.30 411.78 329.41 412.00 332.20 411.80 C 332.69 413.49 333.61 415.12 333.59 416.93 C 333.25 419.88 330.86 422.04 330.29 424.92 C 329.54 428.26 328.68 431.74 326.45 434.45 C 325.01 435.63 323.03 435.21 321.32 435.40 C 320.14 436.66 318.98 437.95 317.83 439.25 C 315.63 438.25 313.27 437.74 310.97 437.05 C 309.28 436.52 310.04 434.28 309.78 432.99 C 314.40 432.11 313.18 426.59 316.00 423.96 C 318.77 421.01 317.32 416.47 318.99 413.00 Z" fill="#584e2a" opacity="1.00" stroke="#584e2a" stroke-width="0.25"/>
<path d="M 318.89 425.05 C 321.58 422.02 319.74 417.96 320.50 414.43 C 324.30 415.04 328.15 414.94 331.98 414.99 C 332.02 418.64 328.78 421.11 328.52 424.70 C 328.13 427.84 325.83 430.17 324.72 433.04 C 323.42 432.96 322.11 432.89 320.82 432.81 C 320.04 433.92 319.26 435.03 318.51 436.16 C 317.85 435.54 317.19 434.93 316.54 434.33 C 314.74 434.51 312.93 434.63 311.12 434.77 C 315.43 433.10 316.10 428.23 318.89 425.05 Z" fill="#a19955" opacity="1.00" stroke="#a19955" stroke-width="0.25"/>
<path d="M 307.12 450.90 C 307.53 448.47 306.56 444.34 310.01 443.97 C 312.03 443.17 316.41 443.51 315.68 446.60 C 313.57 449.17 310.35 450.45 307.12 450.90 Z" fill="#584e2a" opacity="1.00" stroke="#584e2a" stroke-width="0.25"/>
<path d="M 310.25 446.23 C 311.10 445.54 313.66 444.93 313.65 446.66 C 313.19 448.42 307.36 448.09 310.25 446.23 Z" fill="#f5ecd9" opacity="1.00" stroke="#f5ecd9" stroke-width="0.25"/>
</svg>