<?xml version="1.0" encoding="utf-8"?>
<svg xmlns="http://www.w3.org/2000/svg" height="512pt" version="1.1" viewBox="0 0 512 512" width="512pt">
<!--<path d="M 0.00 0.00 L 512.00 0.00 L 512.00 512.00 L 0.00 512.00 L 0.00 0.00 Z" fill="#e2dbcb" opacity="1.00" stroke="#e2dbcb" stroke-width="0.25"/>-->
<path d="M 132.26 38.06 C 132.97 37.55 134.41 36.55 135.12 36.05 C 137.60 36.28 140.01 36.92 142.05 38.40 C 142.81 38.33 144.34 38.17 145.10 38.09 C 146.68 39.55 148.08 41.19 148.89 43.20 C 150.00 44.11 151.13 45.00 152.27 45.89 C 151.89 46.81 151.52 47.72 151.14 48.63 C 151.46 49.16 152.10 50.21 152.41 50.74 C 154.08 51.02 155.74 51.28 157.42 51.53 C 159.25 53.52 161.23 55.39 163.39 57.04 C 163.32 57.65 163.19 58.88 163.12 59.49 C 165.49 60.00 167.87 60.43 170.27 60.78 C 171.32 65.75 173.69 70.31 176.99 74.16 C 179.02 75.84 181.79 76.43 183.69 78.30 C 185.29 80.15 186.54 82.26 188.01 84.21 C 187.42 84.48 186.24 85.03 185.65 85.30 C 186.43 85.36 187.97 85.48 188.75 85.54 C 186.57 87.35 187.54 89.74 188.71 91.75 C 190.69 91.49 192.83 91.48 194.50 90.22 C 195.54 88.95 193.60 88.41 192.97 87.63 C 192.78 86.45 192.66 85.26 192.60 84.07 C 194.88 82.95 197.26 81.98 199.37 80.54 C 200.11 81.95 200.85 83.36 201.60 84.78 C 203.88 85.29 206.49 86.18 208.63 84.74 C 211.62 83.42 212.48 80.06 213.40 77.24 C 216.47 77.95 216.73 81.34 217.72 83.78 C 219.05 83.47 220.38 83.15 221.71 82.81 C 223.09 84.02 224.39 85.37 225.97 86.35 C 229.07 86.99 232.06 85.38 235.15 85.16 C 237.28 88.15 237.37 91.85 238.64 95.16 C 239.90 98.57 244.13 96.88 246.56 98.46 C 247.62 99.68 248.35 101.16 249.46 102.35 C 252.91 104.09 257.25 100.43 260.09 103.79 C 263.05 105.51 264.43 108.62 264.36 111.97 C 265.43 112.07 266.50 112.18 267.58 112.28 C 267.80 113.14 268.26 114.87 268.49 115.73 C 267.14 115.70 265.80 115.67 264.46 115.64 C 264.72 116.24 265.23 117.45 265.49 118.06 C 268.72 119.79 269.93 123.23 269.92 126.74 C 271.70 125.27 273.48 123.81 275.27 122.35 C 277.92 124.50 279.10 127.69 279.91 130.90 C 281.03 130.56 282.14 130.22 283.26 129.88 C 283.99 130.92 284.72 131.95 285.47 132.98 C 285.37 133.64 285.18 134.96 285.08 135.61 C 288.40 137.09 288.80 140.65 289.94 143.66 C 288.25 144.69 286.58 145.75 284.93 146.85 C 285.88 147.53 286.84 148.22 287.79 148.92 C 288.58 152.67 292.11 156.13 289.68 160.01 C 292.53 164.57 293.07 170.02 293.26 175.26 C 292.84 175.58 291.99 176.22 291.57 176.53 C 290.30 179.48 289.14 182.54 289.59 185.82 C 290.09 185.81 291.09 185.81 291.59 185.80 C 292.85 184.05 293.85 181.99 295.65 180.71 C 298.27 179.38 301.24 178.81 304.16 178.70 C 302.72 180.23 301.22 181.70 299.73 183.19 C 300.59 183.20 302.31 183.22 303.17 183.23 C 301.61 187.00 296.61 187.61 293.82 190.45 C 295.94 193.66 299.46 195.35 302.96 196.62 C 307.02 192.45 314.64 189.85 319.50 194.03 C 320.90 193.74 322.31 193.46 323.72 193.21 C 323.26 194.30 322.79 195.39 322.31 196.47 C 324.13 196.47 325.95 196.45 327.78 196.46 C 327.75 199.35 329.04 201.89 330.80 204.10 C 329.95 205.40 329.10 206.71 328.26 208.02 C 329.78 208.59 331.32 209.16 332.86 209.72 C 332.80 210.47 332.70 211.98 332.65 212.73 C 334.66 212.84 337.00 213.77 338.72 212.28 C 340.60 210.47 343.36 210.29 345.79 210.87 C 348.49 212.11 350.61 214.26 353.09 215.86 C 351.57 218.15 352.90 220.73 352.77 223.22 C 353.15 223.76 353.91 224.84 354.29 225.39 C 354.61 225.50 355.24 225.74 355.56 225.86 C 356.18 228.40 357.08 230.96 356.43 233.61 C 358.03 233.40 359.65 233.34 361.27 233.51 C 361.37 234.07 361.57 235.20 361.67 235.77 C 363.81 237.80 365.88 240.49 365.56 243.61 C 364.18 246.98 359.74 247.72 358.37 251.10 C 356.25 256.07 357.14 261.80 359.29 266.60 C 360.49 269.58 363.34 271.29 365.52 273.48 C 368.15 276.09 369.29 279.75 371.53 282.66 C 372.24 284.43 374.03 283.20 375.21 282.80 C 376.41 283.52 377.60 284.25 378.82 284.97 C 378.69 286.56 378.50 288.15 378.28 289.74 C 380.23 288.81 382.30 288.18 384.47 288.03 C 386.40 291.41 389.09 294.49 389.74 298.46 C 391.96 298.65 394.12 299.26 396.03 300.44 C 397.60 299.54 399.30 299.95 400.96 300.36 C 401.31 299.09 401.67 297.84 402.03 296.58 C 402.48 297.02 403.36 297.90 403.80 298.33 C 404.59 297.52 405.38 296.70 406.18 295.90 C 407.63 295.80 409.09 295.72 410.55 295.66 C 410.27 296.63 409.72 298.57 409.44 299.54 C 410.90 299.64 412.36 299.74 413.83 299.84 C 413.42 301.58 412.99 303.32 412.57 305.07 C 413.78 304.77 415.00 304.49 416.22 304.20 C 415.76 305.75 415.30 307.31 414.88 308.88 C 415.76 312.78 416.86 317.32 414.44 320.88 C 415.15 320.80 416.58 320.64 417.29 320.56 C 417.17 321.60 416.92 323.66 416.79 324.69 C 417.34 325.27 417.89 325.86 418.45 326.45 C 417.70 327.78 415.76 328.88 416.31 330.64 C 416.83 332.81 417.30 335.01 417.99 337.14 C 419.83 338.25 422.17 337.48 424.21 337.71 C 424.25 338.57 424.32 340.27 424.36 341.13 C 422.11 342.68 419.20 343.60 417.70 346.00 C 416.97 349.36 418.14 352.71 419.62 355.71 C 422.31 355.47 424.98 355.06 427.68 354.76 C 427.27 356.40 426.77 358.02 426.20 359.62 C 428.06 359.47 429.95 359.27 431.82 359.49 C 431.81 360.92 430.83 362.05 430.22 363.27 C 432.93 363.10 435.27 364.45 437.55 365.73 C 436.94 366.87 436.34 368.03 435.75 369.19 C 436.02 369.70 436.55 370.73 436.82 371.25 C 436.54 371.60 435.98 372.29 435.71 372.63 C 436.49 374.19 437.17 375.81 437.79 377.45 C 440.76 375.39 443.91 377.35 446.96 377.99 C 446.70 380.23 446.27 382.45 445.68 384.63 C 448.76 385.21 449.05 388.63 449.71 391.10 C 450.46 393.53 450.39 396.29 448.59 398.25 C 448.93 399.15 449.28 400.04 449.64 400.95 C 446.89 403.43 446.51 407.25 445.40 410.58 C 442.56 409.61 439.65 408.86 436.73 408.21 C 436.68 407.45 436.57 405.94 436.52 405.18 C 435.76 405.29 434.24 405.49 433.47 405.60 C 433.46 404.95 433.42 403.65 433.40 403.00 C 432.10 403.23 430.80 403.46 429.51 403.69 C 429.12 405.33 428.75 406.97 428.43 408.63 C 428.01 408.97 427.16 409.64 426.74 409.97 C 426.28 412.42 426.09 414.93 426.47 417.41 C 427.78 417.39 429.10 417.37 430.42 417.35 C 432.55 421.95 429.40 426.15 428.65 430.60 C 428.18 430.61 427.26 430.61 426.80 430.61 C 425.77 431.85 424.49 432.84 423.13 433.69 C 423.30 436.00 423.50 438.31 423.43 440.64 C 422.48 440.83 421.53 441.03 420.59 441.23 C 420.20 441.91 419.41 443.26 419.02 443.94 C 418.63 443.25 417.85 441.86 417.47 441.17 C 415.44 441.38 413.41 441.58 411.39 441.80 C 411.69 444.37 412.18 446.99 411.68 449.59 C 411.11 449.58 409.97 449.58 409.40 449.57 C 407.53 446.82 406.22 443.76 404.94 440.71 C 402.18 445.13 405.81 449.40 406.27 453.86 C 406.25 455.46 407.62 456.36 408.63 457.38 C 410.22 457.57 412.63 456.54 413.47 458.49 C 415.10 461.02 414.78 464.24 416.03 466.92 C 417.12 468.44 418.54 469.69 419.83 471.05 C 416.95 474.44 419.66 478.51 419.74 482.34 C 418.17 482.75 416.59 483.14 415.03 483.55 C 412.55 482.11 410.05 480.69 407.38 479.66 C 403.76 478.47 399.15 479.77 396.36 476.61 C 391.03 471.65 390.52 463.63 385.39 458.54 C 383.41 456.18 380.75 454.43 379.03 451.86 C 379.94 449.86 381.91 448.66 383.37 447.10 C 382.65 446.75 381.23 446.06 380.51 445.71 C 379.88 445.95 378.62 446.43 377.99 446.68 C 377.21 445.29 376.43 443.91 375.65 442.54 C 373.39 442.15 372.22 440.45 372.63 438.14 C 372.24 438.73 371.46 439.91 371.07 440.49 C 370.01 439.21 368.97 437.94 367.91 436.68 C 367.90 435.66 367.89 434.64 367.88 433.63 C 365.70 432.89 363.52 432.16 361.34 431.43 C 360.24 427.66 363.78 425.43 365.33 422.49 C 366.56 419.90 366.10 416.10 363.46 414.56 C 361.66 413.80 359.69 413.68 357.80 413.37 C 356.49 411.89 355.30 409.85 353.10 409.70 C 351.32 409.59 349.55 409.74 347.78 409.79 C 347.72 409.24 347.59 408.13 347.53 407.57 C 344.95 406.52 342.65 404.94 340.66 403.00 C 341.72 402.36 342.79 401.72 343.86 401.09 C 343.60 400.01 343.38 398.91 342.98 397.88 C 339.47 397.47 335.90 397.41 332.55 396.17 C 330.73 394.17 328.30 393.01 325.72 392.36 C 326.10 395.62 322.72 397.79 323.39 400.99 C 325.05 401.92 326.57 403.09 327.86 404.51 C 326.98 404.46 325.22 404.35 324.34 404.29 C 323.35 404.85 322.35 405.40 321.34 405.92 C 318.94 407.84 318.04 410.76 317.22 413.59 C 319.05 413.94 320.90 414.23 322.75 414.47 C 322.68 416.67 322.49 418.88 322.30 421.08 C 323.57 421.29 324.85 421.50 326.12 421.73 C 327.56 425.37 328.43 429.22 328.19 433.16 C 329.20 433.30 330.22 433.44 331.24 433.59 C 335.00 438.09 333.87 444.32 335.38 449.63 C 334.68 449.65 333.27 449.67 332.57 449.68 C 331.61 453.30 330.32 457.33 332.38 460.83 C 332.42 461.32 332.49 462.29 332.53 462.77 C 331.63 462.28 330.73 461.80 329.84 461.31 C 329.21 462.29 328.59 463.26 327.96 464.25 C 322.94 464.04 317.88 463.91 312.90 463.26 C 311.36 460.91 311.07 457.93 309.42 455.63 C 308.22 454.09 306.77 452.78 305.43 451.38 C 306.07 448.83 306.27 446.20 305.68 443.63 C 304.03 443.72 302.38 443.80 300.74 443.85 C 301.23 442.62 301.96 441.52 302.81 440.51 C 301.83 439.69 300.85 438.89 299.88 438.08 C 299.83 437.34 299.71 435.86 299.66 435.11 C 297.74 434.71 295.83 434.28 293.95 433.73 C 290.25 433.74 286.87 435.20 283.99 437.45 C 279.35 435.53 274.16 435.54 269.59 433.37 C 268.96 429.38 265.58 426.66 261.76 425.93 C 261.29 424.82 260.82 423.71 260.36 422.61 C 257.57 422.34 254.93 421.44 252.78 419.62 C 252.72 417.42 251.80 415.46 250.71 413.61 C 251.20 413.21 252.17 412.42 252.66 412.02 C 252.73 411.61 252.85 410.77 252.92 410.35 C 255.91 410.43 258.89 410.06 261.80 409.34 C 261.69 408.47 261.60 407.60 261.50 406.74 C 259.59 406.31 257.63 405.14 255.65 405.62 C 254.47 406.54 253.43 407.63 252.32 408.64 C 251.88 402.58 250.84 396.51 248.36 390.92 C 243.12 389.93 240.06 384.80 234.74 383.79 C 235.53 383.33 237.10 382.41 237.89 381.96 C 234.97 379.61 231.58 377.99 228.12 376.62 C 230.00 375.75 231.87 374.88 233.75 374.02 C 232.27 370.42 228.69 369.04 225.09 368.61 C 224.26 364.35 219.43 363.86 215.86 363.67 C 214.40 366.34 215.96 371.08 211.82 371.90 C 209.26 370.55 207.05 368.07 203.89 368.48 C 201.32 368.66 201.03 371.95 201.36 373.92 C 202.54 376.94 205.28 379.01 206.66 381.94 C 206.79 383.71 206.36 385.46 206.13 387.22 C 207.55 388.54 209.00 389.83 210.46 391.12 C 206.98 396.58 203.34 401.97 199.13 406.91 C 198.24 406.48 196.47 405.63 195.58 405.20 C 195.91 406.11 196.57 407.92 196.90 408.83 C 196.51 409.51 196.12 410.20 195.74 410.89 C 195.76 412.62 195.78 414.35 195.80 416.08 C 191.59 416.37 188.14 418.83 184.19 419.97 C 185.70 423.64 189.10 425.92 191.57 428.88 C 190.53 429.64 189.50 430.41 188.47 431.18 C 189.09 431.65 190.31 432.60 190.93 433.07 C 189.10 434.67 187.14 436.13 185.20 437.59 C 183.21 437.42 181.21 437.42 179.22 437.54 C 179.29 439.21 179.63 440.86 180.24 442.43 C 179.58 443.70 178.89 444.95 178.19 446.20 C 180.26 447.70 182.03 449.57 183.20 451.87 C 181.72 452.92 180.24 453.98 178.78 455.06 C 177.81 454.48 176.84 453.90 175.87 453.32 C 171.81 453.91 167.61 454.04 163.86 455.90 C 161.07 455.12 158.33 454.18 155.64 453.12 C 154.88 450.72 154.45 448.18 153.22 445.96 C 152.18 444.42 150.14 444.42 148.57 443.85 C 148.59 442.46 148.61 441.08 148.64 439.70 C 146.64 439.57 144.65 439.77 142.67 440.05 C 142.57 439.50 142.36 438.40 142.25 437.84 C 141.40 438.12 139.70 438.66 138.84 438.93 C 137.25 438.04 135.69 437.11 134.16 436.12 C 134.92 435.55 136.44 434.40 137.20 433.83 C 135.11 433.04 132.91 432.74 130.70 432.67 C 130.46 431.19 130.27 429.72 130.13 428.24 C 131.94 426.30 131.72 423.84 129.72 422.13 C 130.17 420.75 130.62 419.39 131.05 418.02 C 129.66 417.30 128.28 416.58 126.90 415.84 C 127.15 410.82 127.44 405.07 123.60 401.22 C 123.57 398.94 123.61 396.67 123.68 394.40 C 125.05 394.90 126.42 395.41 127.80 395.91 C 127.88 393.54 127.97 391.18 128.07 388.82 C 129.13 389.40 130.19 389.99 131.25 390.58 C 132.24 388.91 133.18 387.21 133.88 385.41 C 135.83 383.45 139.14 382.09 139.36 379.01 C 138.26 376.02 136.22 373.26 136.76 369.89 C 136.24 369.15 135.72 368.42 135.20 367.69 C 134.72 364.77 133.64 362.01 132.64 359.24 C 133.92 356.18 134.46 352.88 133.79 349.60 C 135.70 349.25 137.61 348.88 139.51 348.51 C 139.93 347.32 140.35 346.13 140.77 344.94 C 143.69 343.49 145.71 340.71 144.81 337.31 C 145.43 337.31 146.67 337.30 147.30 337.30 C 146.65 334.79 146.12 332.24 145.35 329.77 C 145.36 328.31 145.39 326.86 145.44 325.41 C 143.86 323.90 141.79 323.48 139.65 323.53 C 139.57 325.20 139.63 326.89 139.41 328.56 C 137.90 330.08 136.21 331.79 134.00 332.17 C 131.67 332.17 129.34 332.01 127.01 332.11 C 125.49 329.12 122.91 326.83 121.35 323.89 C 120.90 319.68 121.50 315.13 118.98 311.43 C 119.78 308.65 120.55 305.50 119.22 302.77 C 117.17 301.73 114.84 302.58 112.69 302.68 C 111.95 301.61 111.21 300.55 110.46 299.50 C 109.29 299.46 108.12 299.41 106.95 299.37 C 106.81 298.70 106.55 297.34 106.41 296.67 C 105.26 296.30 104.10 295.93 102.95 295.58 C 101.69 297.34 100.43 299.11 99.12 300.85 C 97.73 299.87 96.34 298.92 94.92 297.99 C 93.77 300.29 92.98 302.75 93.20 305.35 C 90.28 305.37 87.40 304.89 84.55 304.33 C 83.60 303.46 82.64 302.60 81.66 301.76 C 82.18 301.38 83.21 300.60 83.72 300.22 C 83.37 298.38 82.99 296.54 82.61 294.71 C 86.29 291.96 87.69 287.60 87.82 283.15 C 85.02 282.02 85.44 278.93 85.11 276.48 C 84.56 276.41 83.47 276.27 82.92 276.20 C 83.12 272.13 82.23 267.86 78.59 265.51 C 78.67 263.56 78.74 261.62 78.78 259.68 C 73.20 257.49 65.85 257.24 62.29 251.80 C 62.97 248.12 65.16 244.54 63.74 240.64 C 63.18 240.29 62.05 239.58 61.49 239.23 C 61.54 238.45 61.66 236.89 61.72 236.11 C 60.18 235.17 58.63 234.23 57.08 233.32 C 57.48 230.84 58.01 228.37 58.66 225.94 C 60.08 224.93 61.35 223.70 61.08 221.79 C 61.92 221.01 62.77 220.25 63.62 219.48 C 65.09 219.87 66.56 220.26 68.04 220.65 C 71.61 217.72 72.10 212.74 75.85 210.02 C 75.36 207.29 74.74 204.59 74.00 201.93 C 76.28 199.40 78.35 196.37 78.23 192.82 C 77.21 191.79 76.01 190.97 74.87 190.10 C 74.30 185.36 75.43 180.19 73.37 175.79 C 74.71 174.42 76.05 173.05 77.35 171.64 C 78.59 172.28 79.83 172.93 81.07 173.61 C 81.20 172.93 81.48 171.57 81.61 170.89 C 81.99 170.75 82.75 170.47 83.13 170.33 C 83.55 170.92 84.40 172.09 84.83 172.67 C 85.47 171.75 86.11 170.82 86.76 169.91 C 88.43 170.26 90.09 169.93 91.73 169.56 C 89.90 166.26 89.66 162.08 91.98 158.96 C 93.43 157.18 95.89 154.75 98.20 156.60 C 99.40 155.72 100.60 154.85 101.82 153.99 C 101.95 151.19 102.07 148.40 102.27 145.61 C 103.62 145.24 104.97 144.87 106.32 144.51 C 106.97 145.54 107.62 146.56 108.28 147.58 C 108.69 146.32 109.09 145.05 109.49 143.79 C 112.13 140.63 113.85 136.81 115.19 132.95 C 116.36 130.23 113.55 128.14 112.48 125.90 C 113.61 125.04 114.74 124.19 115.85 123.32 C 116.65 123.92 117.45 124.52 118.26 125.11 C 117.91 123.08 117.54 121.06 117.14 119.04 C 117.69 118.45 118.24 117.85 118.79 117.26 C 116.26 114.22 118.75 110.41 118.03 106.99 C 117.46 104.60 114.71 104.19 112.88 103.11 C 113.24 102.07 113.59 101.04 113.94 100.01 C 113.62 99.51 112.98 98.51 112.66 98.01 C 115.30 93.35 119.64 90.00 122.47 85.50 C 124.75 78.80 120.83 72.28 119.96 65.72 C 119.29 65.74 117.96 65.77 117.30 65.79 C 117.75 64.88 118.21 63.97 118.67 63.07 C 117.64 60.98 117.13 58.39 115.12 56.98 C 113.67 56.15 112.03 55.76 110.48 55.19 C 110.45 53.82 110.42 52.44 110.41 51.07 C 116.00 49.85 121.06 45.64 122.91 40.18 C 126.21 40.60 129.51 41.09 132.80 41.65 C 133.28 43.53 133.58 45.58 135.01 47.04 C 134.41 43.95 133.18 41.05 132.26 38.06 Z" fill="#33542d" opacity="1.00" stroke="#33542d" stroke-width="0.25"/>
<path d="M 443.40 388.96 C 443.21 387.51 445.68 387.46 446.35 388.39 C 446.46 389.77 444.05 389.87 443.40 388.96 Z" fill="#e2dbcb" opacity="1.00" stroke="#e2dbcb" stroke-width="0.25"/>
<path d="M 388.76 452.80 C 391.94 455.80 391.95 460.44 392.70 464.43 C 391.46 463.26 389.87 462.36 389.07 460.80 C 388.72 458.15 388.86 455.46 388.76 452.80 Z" fill="#e2dbcb" opacity="1.00" stroke="#e2dbcb" stroke-width="0.25"/>
</svg>