<?xml version="1.0" encoding="utf-8"?>
<svg xmlns="http://www.w3.org/2000/svg" height="512pt" version="1.1" viewBox="0 0 512 512" width="512pt">
<!--<path d="M 0.00 0.00 L 512.00 0.00 L 512.00 512.00 L 0.00 512.00 L 0.00 0.00 Z" fill="#ded8ca" opacity="1.00" stroke="#ded8ca" stroke-width="0.25"/>-->
<path d="M 165.72 41.56 C 167.61 43.09 169.48 41.99 171.14 40.82 C 171.23 41.71 171.42 43.48 171.51 44.37 C 172.39 43.42 173.27 42.46 174.14 41.50 C 175.04 44.28 175.15 47.82 178.26 49.12 C 178.35 49.60 178.52 50.55 178.61 51.03 C 182.70 51.59 183.57 56.04 184.88 59.23 C 186.33 59.72 187.78 60.22 189.23 60.72 C 189.34 60.42 189.56 59.82 189.66 59.52 C 192.11 59.44 194.53 59.79 196.87 60.49 C 196.69 61.20 196.33 62.62 196.14 63.33 C 197.34 64.95 200.01 65.28 200.75 67.10 C 200.36 67.45 199.57 68.16 199.18 68.51 C 199.36 68.96 199.72 69.87 199.90 70.32 C 199.52 70.48 198.77 70.82 198.39 70.98 C 198.29 72.29 198.18 73.59 198.05 74.89 C 197.35 75.57 196.40 76.15 196.32 77.21 C 198.70 75.87 201.34 76.80 202.86 78.85 C 201.53 81.21 199.66 83.44 199.52 86.27 C 200.44 86.11 202.29 85.80 203.21 85.64 C 203.46 86.34 203.96 87.73 204.21 88.43 C 204.64 87.93 205.51 86.93 205.95 86.43 C 207.79 88.30 209.74 90.07 211.83 91.66 C 217.16 89.31 221.88 85.62 227.49 83.96 C 228.15 86.04 228.29 88.42 229.59 90.24 C 231.44 91.16 233.72 91.35 235.22 92.89 C 235.00 94.91 234.53 96.90 234.23 98.92 C 240.79 98.40 247.09 95.33 251.75 90.72 C 254.16 88.62 255.68 85.55 258.59 84.03 C 260.24 84.96 262.06 86.38 264.07 85.60 C 268.32 84.17 271.49 80.82 275.12 78.35 C 278.50 77.83 282.01 78.05 285.22 79.31 C 286.16 78.64 287.10 77.96 288.04 77.29 C 288.29 78.80 288.51 80.31 288.72 81.83 C 289.24 82.00 290.27 82.35 290.78 82.53 C 290.71 83.31 290.56 84.86 290.48 85.64 C 290.95 85.62 291.90 85.57 292.37 85.54 C 292.78 86.96 293.21 88.37 293.64 89.78 C 294.77 89.79 295.91 89.79 297.05 89.80 C 297.56 90.85 298.08 91.90 298.60 92.95 C 298.07 93.40 297.02 94.30 296.49 94.75 C 297.70 95.73 298.33 97.11 298.74 98.58 C 301.50 102.77 306.45 104.53 311.07 105.83 C 313.34 108.42 309.68 110.83 308.35 112.83 C 313.06 114.58 314.16 119.76 315.78 123.93 C 318.19 123.72 320.60 123.53 323.03 123.44 C 324.77 126.43 325.72 129.81 325.52 133.29 C 326.36 134.75 327.14 136.26 328.18 137.59 C 328.54 137.32 328.90 137.04 329.27 136.77 C 328.30 135.72 326.96 134.62 327.40 132.96 C 329.75 133.68 332.58 135.22 332.64 138.04 C 332.02 140.23 330.61 142.08 329.45 144.01 C 330.13 145.88 331.00 147.68 332.07 149.36 C 331.90 150.10 331.72 150.85 331.56 151.59 C 331.93 152.73 332.31 153.86 332.68 155.00 C 332.01 155.52 330.67 156.57 330.00 157.09 C 331.87 159.28 335.33 158.33 337.02 160.88 C 338.60 160.71 340.18 160.49 341.75 160.23 C 341.77 162.44 343.06 163.01 345.08 162.42 C 345.29 163.43 345.49 164.44 345.70 165.46 C 346.65 165.82 347.60 166.18 348.55 166.55 C 348.85 168.07 348.38 170.10 350.03 170.98 C 352.07 171.83 354.25 172.30 356.38 172.89 C 356.63 174.79 356.79 176.71 356.73 178.63 C 357.69 177.86 358.77 177.27 359.91 176.80 C 361.50 178.61 363.07 180.47 364.95 181.99 C 366.38 183.37 368.48 182.29 370.19 182.25 C 370.97 183.03 371.76 183.82 372.56 184.61 C 372.67 186.61 372.74 188.61 372.82 190.62 C 374.84 190.75 376.88 190.73 378.86 191.24 C 379.64 192.70 379.46 194.40 379.57 195.99 C 380.40 195.22 381.22 194.44 382.07 193.68 C 382.68 196.11 383.30 198.65 385.06 200.54 C 384.40 201.26 383.75 201.99 383.11 202.71 C 384.88 202.48 386.66 202.33 388.45 202.32 C 388.56 203.92 388.74 205.51 388.66 207.12 C 387.75 210.89 384.51 213.90 384.42 217.90 C 385.63 220.51 386.82 223.15 386.65 226.12 C 385.12 228.13 383.12 231.12 385.30 233.43 C 387.56 234.22 390.54 233.75 392.11 235.92 C 394.73 238.73 393.31 242.92 392.02 246.04 C 389.89 250.64 388.88 256.20 391.10 260.95 C 392.43 263.82 395.60 264.84 398.30 265.95 L 398.77 264.04 C 399.13 264.75 399.50 265.46 399.87 266.18 C 399.36 266.70 398.33 267.73 397.82 268.24 C 399.00 268.76 400.26 268.43 401.46 268.27 C 401.82 269.78 402.20 271.30 402.57 272.82 C 402.89 272.29 403.52 271.24 403.84 270.72 C 407.33 272.64 409.76 276.05 413.52 277.55 C 413.58 278.02 413.71 278.95 413.77 279.41 C 416.62 279.74 418.34 281.99 419.93 284.12 C 421.85 282.13 424.58 281.99 427.13 282.65 C 427.61 283.96 428.11 285.28 428.61 286.61 C 429.59 286.61 430.57 286.63 431.56 286.64 C 432.92 288.67 433.90 290.93 433.91 293.42 C 436.60 294.76 439.88 296.04 441.01 299.10 C 441.54 301.42 441.21 303.83 441.20 306.19 C 442.23 306.36 443.26 306.54 444.30 306.72 C 444.75 308.38 445.77 310.13 444.89 311.84 C 443.56 315.28 439.40 315.34 436.44 316.52 C 437.40 318.45 437.81 320.56 437.89 322.70 C 437.27 322.75 436.03 322.84 435.41 322.88 C 434.95 326.23 433.28 329.20 431.93 332.25 C 431.40 332.34 430.33 332.52 429.80 332.60 C 430.43 333.60 431.09 334.61 431.74 335.61 C 428.39 336.72 427.14 340.07 426.16 343.13 C 424.89 342.47 423.63 341.79 422.39 341.12 C 422.22 341.84 421.89 343.27 421.72 343.99 C 420.98 343.34 419.50 342.04 418.76 341.39 C 419.37 342.32 420.02 343.22 420.71 344.11 C 422.16 344.54 423.60 345.02 425.05 345.51 C 424.71 347.14 424.37 348.77 424.02 350.41 C 422.68 350.46 421.34 350.53 420.01 350.61 C 419.41 351.81 418.71 352.97 417.96 354.09 C 417.89 354.63 417.75 355.71 417.69 356.26 C 415.86 358.03 414.84 360.38 413.86 362.67 C 413.39 362.38 412.45 361.80 411.98 361.51 C 410.82 362.59 409.47 362.66 408.07 361.96 C 408.03 362.31 407.97 363.01 407.94 363.36 C 406.50 363.75 405.56 364.70 405.11 366.22 C 404.05 364.49 403.06 362.72 402.11 360.94 C 400.93 362.09 399.73 363.23 398.52 364.36 C 397.25 363.51 395.97 362.69 394.67 361.90 C 394.01 363.56 393.41 365.25 392.87 366.96 C 392.17 366.17 391.48 365.39 390.80 364.61 C 389.89 365.53 389.00 366.45 388.09 367.37 C 386.57 368.42 385.49 369.91 384.82 371.64 C 384.32 371.26 383.34 370.50 382.84 370.12 C 382.71 371.79 382.62 373.48 382.52 375.17 C 381.16 375.94 379.81 376.73 378.47 377.54 C 378.72 380.91 377.97 384.20 377.49 387.51 C 377.99 387.85 379.00 388.55 379.50 388.90 C 379.63 389.94 379.77 390.99 379.91 392.04 C 379.23 392.35 377.87 392.97 377.18 393.28 C 379.14 393.84 381.24 394.05 383.08 394.99 C 384.46 396.23 384.76 398.21 385.49 399.85 C 386.33 400.28 387.18 400.72 388.02 401.16 C 386.72 401.76 385.42 402.37 384.12 402.97 C 384.82 403.74 385.53 404.51 386.23 405.28 C 385.45 405.58 383.89 406.18 383.10 406.48 C 384.32 409.20 385.60 411.89 386.68 414.67 C 381.78 415.35 379.49 410.13 379.00 406.11 C 377.97 407.30 376.96 408.51 375.96 409.73 C 374.39 409.72 372.84 409.72 371.29 409.72 C 371.24 410.98 371.20 412.25 371.16 413.52 C 369.98 413.12 368.81 412.73 367.64 412.34 C 364.76 411.88 360.90 412.29 359.38 409.20 C 359.16 410.08 358.72 411.85 358.50 412.73 C 356.99 411.93 355.39 411.51 353.70 411.48 C 353.61 412.78 353.52 414.09 353.44 415.41 C 352.75 415.51 351.38 415.71 350.69 415.81 C 350.62 419.46 347.54 422.87 344.04 423.69 C 344.62 426.67 345.45 430.02 342.97 432.42 C 341.05 430.43 339.82 427.96 338.52 425.57 C 338.23 427.21 337.96 428.86 337.70 430.52 C 337.14 430.72 336.03 431.12 335.47 431.32 C 337.75 435.20 338.28 439.91 337.10 444.25 C 339.33 445.01 340.78 446.85 342.38 448.47 C 344.81 448.52 347.32 448.22 349.48 449.60 C 349.45 451.81 350.20 454.79 347.12 455.08 C 347.81 456.06 348.52 457.06 349.20 458.06 C 348.51 458.48 347.11 459.30 346.41 459.72 C 349.94 463.10 344.50 465.22 343.40 468.23 C 341.99 468.75 340.58 469.26 339.17 469.77 C 339.37 470.75 339.57 471.75 339.78 472.75 C 339.38 474.05 339.00 475.36 338.63 476.67 C 338.03 476.62 336.84 476.51 336.24 476.46 C 335.13 478.31 333.16 478.72 331.17 478.86 C 330.47 478.10 329.76 477.35 329.05 476.61 C 327.65 477.24 326.19 477.71 324.64 477.54 C 324.71 475.97 324.76 474.40 324.81 472.84 C 324.42 471.12 324.23 469.37 324.10 467.63 C 322.03 467.29 319.96 466.99 317.89 466.76 C 317.25 466.07 316.63 465.39 316.00 464.70 C 314.98 465.78 313.97 466.87 312.98 467.98 C 311.09 467.35 309.22 466.68 307.37 465.96 C 308.13 465.42 309.64 464.32 310.40 463.77 C 309.26 463.65 308.13 463.53 307.00 463.41 C 306.94 460.93 306.83 458.46 306.51 456.01 C 305.24 456.68 303.99 457.38 302.73 458.07 C 302.01 456.75 301.09 455.65 299.59 455.29 C 299.63 454.64 299.73 453.33 299.77 452.68 C 299.05 452.74 297.62 452.87 296.90 452.94 C 295.43 450.82 294.05 448.53 294.34 445.83 C 293.35 444.49 292.01 443.33 291.37 441.77 C 291.02 439.47 290.98 437.14 290.68 434.84 C 290.19 435.53 289.20 436.92 288.71 437.62 C 287.20 434.96 286.20 432.00 284.30 429.58 C 282.77 427.72 280.21 427.73 278.02 427.49 C 278.53 425.16 278.09 422.66 279.10 420.45 C 280.11 418.31 279.52 415.95 279.57 413.69 C 280.44 413.13 281.33 412.61 282.26 412.15 C 281.73 409.36 283.65 404.30 280.05 403.24 C 279.33 400.05 278.58 396.84 278.70 393.56 C 278.10 393.78 276.89 394.23 276.29 394.45 C 275.54 394.18 274.03 393.63 273.28 393.36 C 273.28 392.70 273.28 391.38 273.28 390.72 C 272.69 391.07 271.52 391.78 270.94 392.13 C 270.46 389.47 270.54 386.70 269.90 384.08 C 267.68 380.74 263.40 378.96 262.10 375.00 C 260.85 372.05 262.94 369.23 263.55 366.41 C 260.98 367.15 258.31 366.73 257.18 364.08 C 253.62 364.47 250.14 363.68 246.63 363.26 C 246.25 362.21 245.87 361.17 245.50 360.14 C 241.04 358.43 236.09 360.37 231.75 358.05 C 231.29 360.15 230.62 362.29 228.20 362.68 C 226.87 365.11 225.93 367.73 224.52 370.13 C 224.09 368.92 223.66 367.71 223.25 366.51 C 222.75 368.42 222.20 370.33 221.59 372.22 C 220.81 372.68 219.25 373.59 218.48 374.04 C 218.15 373.17 217.49 371.41 217.17 370.53 C 217.13 371.68 217.11 372.84 217.09 374.00 C 215.56 373.54 214.18 372.82 212.94 371.83 C 211.87 372.38 210.73 372.66 209.52 372.68 C 209.04 373.62 208.56 374.56 208.08 375.51 C 208.22 375.98 208.51 376.93 208.65 377.41 C 209.44 377.58 211.01 377.94 211.80 378.12 C 211.18 378.59 209.94 379.55 209.32 380.03 C 209.67 380.49 210.37 381.42 210.72 381.88 C 209.46 382.67 208.20 383.48 206.95 384.30 C 206.11 383.78 205.28 383.27 204.46 382.76 C 204.42 383.66 204.34 385.48 204.30 386.38 C 203.68 386.41 202.44 386.48 201.82 386.51 C 201.15 388.69 201.41 392.61 197.99 391.49 C 198.19 392.57 198.59 394.72 198.79 395.79 C 198.06 395.13 196.61 393.81 195.88 393.15 C 194.28 394.67 194.95 396.16 196.63 397.46 C 195.62 397.39 193.60 397.24 192.58 397.17 C 193.78 399.86 197.05 400.93 197.91 403.83 C 198.74 406.66 201.20 409.85 199.02 412.65 C 199.33 413.36 199.65 414.08 199.97 414.80 C 199.41 415.05 198.30 415.54 197.75 415.79 C 200.16 417.69 201.35 420.50 201.93 423.46 C 201.52 423.83 200.69 424.57 200.27 424.95 C 200.64 425.96 201.01 426.98 201.38 428.00 C 200.87 429.37 200.36 430.75 199.85 432.13 C 198.45 432.46 195.84 431.26 195.46 433.29 C 197.02 433.74 198.66 433.58 200.27 433.58 C 199.06 435.62 198.16 437.83 196.97 439.88 C 195.35 441.05 193.21 441.60 191.22 441.45 C 188.34 440.22 187.73 436.78 186.81 434.14 C 186.23 432.07 184.30 430.90 182.86 429.49 C 180.54 430.77 178.27 432.14 175.98 433.48 C 176.32 433.94 177.00 434.85 177.33 435.30 C 176.72 435.64 175.50 436.32 174.89 436.66 C 175.37 437.01 176.33 437.71 176.81 438.06 C 176.52 438.37 175.95 438.98 175.66 439.28 C 176.56 440.75 176.67 442.48 176.83 444.16 C 177.50 444.33 178.83 444.66 179.50 444.83 C 178.99 448.03 176.96 450.70 176.35 453.88 C 178.11 457.02 176.53 460.60 174.39 463.12 C 173.55 462.25 172.67 461.45 171.72 460.72 C 171.65 461.45 171.51 462.90 171.44 463.63 C 170.44 463.05 169.44 462.47 168.44 461.91 C 168.81 465.28 172.37 470.07 168.29 472.33 C 166.94 470.55 165.56 468.81 164.13 467.10 C 163.36 467.29 161.81 467.67 161.04 467.86 C 160.47 466.19 159.35 464.87 157.45 464.93 C 157.95 462.47 158.41 460.01 158.54 457.51 C 158.08 456.09 157.70 454.66 157.35 453.22 C 151.79 454.30 146.16 455.99 140.45 454.89 C 137.93 454.31 135.51 455.19 133.14 455.92 C 128.79 452.09 132.30 445.86 131.27 440.97 C 129.71 440.54 128.16 440.10 126.61 439.65 C 126.42 439.02 126.04 437.75 125.85 437.11 C 124.88 437.55 123.92 437.99 122.96 438.45 C 121.77 437.60 120.11 437.19 119.35 435.87 C 119.45 433.76 120.34 431.79 120.79 429.75 C 121.86 429.13 122.92 428.52 123.99 427.92 C 123.32 427.51 121.99 426.70 121.32 426.29 C 121.36 425.58 121.44 424.15 121.48 423.44 C 120.09 423.87 118.71 424.33 117.32 424.78 C 116.22 424.37 115.12 423.99 114.02 423.61 C 113.73 422.38 113.44 421.15 113.15 419.93 C 113.42 419.54 113.96 418.77 114.23 418.38 C 114.41 417.27 114.60 416.16 114.81 415.07 C 112.81 413.25 110.80 411.33 108.15 410.51 C 103.31 408.73 98.74 406.28 94.53 403.30 C 94.46 401.53 94.40 399.76 94.35 398.00 C 93.50 398.75 92.65 399.49 91.79 400.24 C 91.27 398.81 90.76 397.38 90.26 395.96 C 91.82 394.85 93.37 393.73 94.93 392.61 C 94.14 392.56 92.56 392.46 91.77 392.41 C 91.62 391.51 91.31 389.72 91.16 388.83 C 90.67 389.42 89.69 390.59 89.20 391.18 C 89.46 389.74 89.71 388.30 89.96 386.86 C 89.56 386.71 88.77 386.41 88.37 386.26 C 87.95 384.60 87.48 382.97 86.85 381.39 C 86.87 378.52 86.80 375.66 86.63 372.81 C 87.13 372.54 88.14 371.99 88.65 371.72 C 88.62 371.10 88.58 369.85 88.55 369.22 C 88.99 368.75 89.86 367.81 90.30 367.33 C 91.01 365.43 90.57 362.17 93.44 362.26 C 94.96 355.72 95.04 348.80 97.80 342.59 C 97.66 341.79 97.36 340.18 97.22 339.38 C 97.93 339.44 99.35 339.57 100.06 339.63 C 101.23 336.10 101.87 332.48 101.94 328.76 C 101.23 328.16 100.52 327.57 99.82 326.99 C 100.58 326.81 102.12 326.47 102.88 326.30 C 102.81 325.62 102.67 324.26 102.59 323.58 C 103.47 323.10 104.35 322.63 105.23 322.15 C 103.33 319.48 101.26 316.93 99.47 314.18 C 101.89 308.19 105.37 302.44 110.56 298.48 C 113.50 296.41 114.38 292.73 115.44 289.51 C 116.22 286.70 114.02 284.28 113.09 281.81 C 111.41 278.93 111.75 275.54 111.31 272.37 C 110.26 268.04 105.62 266.10 103.72 262.31 C 102.18 257.82 102.31 252.98 101.62 248.33 C 98.69 245.48 95.43 242.95 92.00 240.73 C 88.62 240.02 85.15 241.10 81.89 241.95 C 77.91 242.83 75.74 246.98 71.76 247.81 C 68.44 248.52 64.68 249.08 61.60 247.27 C 59.20 245.88 57.15 243.96 55.09 242.13 C 55.45 240.11 55.75 238.09 56.09 236.08 C 56.77 235.03 57.41 233.93 57.24 232.62 C 58.32 231.56 59.12 230.29 59.42 228.79 C 59.02 228.01 58.62 227.24 58.23 226.47 C 58.98 226.39 60.50 226.24 61.26 226.17 C 61.64 224.63 62.01 223.09 62.39 221.56 C 61.58 221.11 60.77 220.67 59.96 220.23 C 60.30 219.80 60.96 218.95 61.30 218.53 C 61.15 216.72 61.43 214.86 62.81 213.58 C 63.34 214.55 63.87 215.52 64.40 216.49 C 64.61 212.03 64.85 207.60 66.06 203.27 C 66.68 203.26 67.93 203.23 68.56 203.22 C 68.43 202.45 68.18 200.92 68.05 200.15 C 68.42 199.75 69.16 198.95 69.53 198.54 C 69.60 197.43 69.67 196.33 69.74 195.22 C 72.03 194.16 72.88 192.08 72.50 189.68 C 71.68 191.17 70.75 192.61 68.86 192.76 C 69.14 191.62 69.43 190.48 69.73 189.34 C 69.32 188.79 68.50 187.68 68.09 187.12 C 70.00 185.30 71.86 183.43 73.74 181.58 C 75.79 181.71 77.84 181.82 79.88 181.92 C 80.85 178.77 82.21 175.77 83.85 172.92 C 85.58 173.48 87.29 174.08 89.01 174.68 C 89.57 173.94 90.69 172.47 91.25 171.73 C 91.71 172.49 92.63 174.00 93.09 174.75 C 93.17 174.48 93.33 173.93 93.41 173.66 C 92.82 172.99 92.23 172.33 91.64 171.66 C 91.64 171.12 91.64 170.04 91.64 169.49 C 94.04 169.05 96.45 168.65 98.88 168.41 C 99.37 167.31 99.93 166.25 100.57 165.23 C 100.52 163.40 100.59 161.57 100.76 159.75 C 103.87 160.24 106.96 159.78 109.78 158.39 C 109.66 155.22 108.53 151.55 110.76 148.83 C 111.80 147.22 113.71 146.68 115.40 146.03 C 116.17 144.68 116.91 143.32 117.65 141.96 C 118.13 141.85 119.09 141.63 119.56 141.52 C 119.74 140.31 119.92 139.11 120.11 137.91 C 119.43 135.39 119.72 131.74 116.40 131.22 C 116.16 130.79 115.68 129.92 115.45 129.49 C 113.99 128.68 112.54 127.87 111.09 127.05 C 112.40 123.61 116.06 125.90 118.47 124.52 C 118.59 122.90 118.48 121.28 118.47 119.66 C 118.84 119.39 119.58 118.85 119.95 118.58 C 118.88 117.21 117.82 115.85 116.77 114.47 C 119.91 113.81 123.10 113.43 126.30 113.21 C 124.66 112.42 122.89 111.80 121.46 110.63 C 121.20 109.16 121.51 107.68 121.59 106.21 C 124.03 106.42 126.27 107.40 128.28 108.78 C 128.60 107.61 128.93 106.45 129.26 105.28 C 129.74 105.35 130.70 105.47 131.19 105.53 C 132.26 106.38 133.35 107.23 134.45 108.06 C 134.56 105.70 134.21 103.35 134.28 101.00 C 134.36 99.38 136.70 100.07 137.42 98.91 C 136.81 98.06 136.17 97.23 135.50 96.43 C 136.08 96.17 137.24 95.65 137.82 95.38 C 135.12 93.11 136.96 89.92 138.24 87.49 C 138.87 87.43 140.12 87.32 140.74 87.27 C 140.72 86.57 140.68 85.18 140.66 84.48 C 141.23 84.54 142.38 84.65 142.96 84.71 C 143.55 80.96 144.57 76.89 142.52 73.38 C 139.83 72.69 137.04 72.52 134.30 73.02 C 134.55 71.20 135.23 69.32 134.72 67.49 C 133.89 65.87 132.58 64.57 131.63 63.04 C 131.01 61.01 132.33 59.11 132.57 57.13 C 133.02 55.34 132.74 53.25 134.06 51.77 C 134.41 53.35 134.77 54.93 135.15 56.51 C 136.05 53.60 135.43 50.49 133.61 48.07 C 135.95 46.24 138.29 44.36 141.05 43.20 C 142.49 44.75 143.63 47.27 146.04 47.35 C 150.41 47.47 154.06 44.75 157.68 42.70 C 160.20 41.28 162.77 43.29 165.03 44.28 C 165.21 43.60 165.55 42.24 165.72 41.56 Z" fill="#35512f" opacity="1.00" stroke="#35512f" stroke-width="0.25"/>
</svg>