<?xml version="1.0" encoding="utf-8"?>
<svg xmlns="http://www.w3.org/2000/svg" height="512pt" version="1.1" viewBox="0 0 512 512" width="512pt">
<!--<path d="M 0.00 0.00 L 512.00 0.00 L 512.00 512.00 L 0.00 512.00 L 0.00 0.00 Z" fill="#dfd9cd" opacity="1.00" stroke="#dfd9cd" stroke-width="0.25"/>-->
<path d="M 239.30 30.30 C 240.10 28.86 240.19 26.74 241.77 25.87 C 244.11 25.85 246.44 26.08 248.77 26.27 C 250.13 26.81 251.49 27.35 252.86 27.90 C 254.99 29.76 257.33 31.37 259.61 33.05 C 262.74 30.68 267.28 31.54 269.92 28.43 C 272.59 28.94 275.28 29.28 277.97 29.66 C 278.58 31.23 279.20 32.79 279.83 34.36 C 282.40 34.40 285.00 34.41 287.51 33.72 C 288.77 32.89 290.04 33.83 291.08 34.47 C 292.61 34.47 294.14 34.45 295.68 34.43 C 295.92 35.02 296.42 36.20 296.66 36.80 C 299.89 36.41 303.14 36.10 306.39 36.23 C 306.77 36.73 307.51 37.72 307.88 38.22 C 309.57 38.44 311.29 38.60 312.95 39.02 C 314.18 42.10 314.82 45.40 315.96 48.52 C 315.38 48.57 314.24 48.68 313.66 48.74 C 313.70 50.73 313.81 52.71 314.07 54.69 C 316.17 54.72 318.28 54.74 320.39 54.73 C 320.65 56.25 320.93 57.77 321.17 59.29 C 324.89 59.29 328.06 61.02 330.81 63.39 C 332.25 62.66 333.71 61.95 335.14 61.17 C 335.74 62.84 336.30 64.53 336.85 66.22 C 340.03 67.55 343.19 68.94 346.29 70.47 C 347.21 68.91 348.14 67.36 349.15 65.86 C 350.79 66.24 352.45 66.56 354.10 66.93 C 354.57 66.32 355.52 65.11 355.99 64.50 C 357.65 65.76 359.30 67.04 360.93 68.34 C 361.74 68.07 363.37 67.53 364.18 67.26 C 364.58 67.83 365.39 68.99 365.79 69.57 C 366.35 69.57 367.48 69.58 368.04 69.59 C 368.40 70.82 368.77 72.04 369.15 73.27 C 371.48 74.23 374.11 75.28 375.19 77.77 C 377.29 81.01 376.78 85.58 380.13 88.01 C 380.97 91.75 381.30 95.64 382.84 99.18 C 384.10 101.79 386.44 103.66 387.93 106.12 C 388.21 107.81 386.88 109.01 386.23 110.41 C 392.04 112.89 393.24 119.85 393.70 125.45 C 395.42 127.12 397.46 128.43 399.29 129.98 C 397.52 131.70 395.66 133.37 394.21 135.39 C 393.38 137.18 393.62 139.26 393.21 141.17 C 395.99 143.20 398.46 145.60 401.21 147.67 C 402.87 148.18 404.41 146.96 406.01 146.66 C 408.11 150.80 411.29 154.22 413.76 158.11 C 412.41 163.40 412.20 169.88 417.19 173.39 C 417.60 175.63 416.89 178.49 419.03 180.02 C 421.86 182.48 420.75 186.76 422.39 189.91 C 424.00 189.44 425.57 188.87 427.07 188.10 C 427.63 190.38 428.14 192.70 429.09 194.87 C 431.62 197.54 435.53 199.31 435.82 203.48 C 441.54 203.40 446.39 207.64 448.35 212.78 C 449.04 215.01 447.78 217.20 447.21 219.30 C 448.15 222.54 449.15 225.96 452.09 227.97 C 454.05 233.21 454.84 238.95 452.52 244.23 C 454.22 248.17 457.53 251.55 457.85 256.00 C 457.15 259.58 456.12 263.09 455.77 266.74 C 453.89 269.74 451.52 272.63 448.51 274.55 C 446.78 276.03 444.62 274.59 442.74 274.34 C 442.42 274.59 441.79 275.10 441.48 275.35 C 439.06 276.39 436.33 277.23 434.53 279.23 C 433.57 282.21 432.47 285.15 431.18 288.00 C 433.86 292.42 434.85 298.87 430.68 302.72 C 427.53 306.11 424.48 300.82 420.89 301.08 C 417.05 299.66 413.14 302.55 409.26 302.88 C 410.26 307.52 410.55 312.25 410.34 316.99 C 409.87 321.28 414.16 323.69 415.73 327.24 C 415.43 329.23 414.69 331.11 414.36 333.09 C 414.14 338.50 418.18 343.04 417.64 348.46 C 421.19 354.02 423.34 360.39 423.87 366.97 C 424.09 371.57 426.51 375.88 425.57 380.56 C 421.46 379.58 417.80 382.31 413.66 381.60 C 412.59 383.61 412.01 385.81 411.85 388.08 C 411.43 393.24 409.62 398.20 407.22 402.76 C 408.40 404.11 409.60 405.45 410.91 406.71 C 408.80 409.60 405.34 410.12 402.02 409.73 C 399.54 411.98 399.25 415.54 398.03 418.49 C 398.32 419.40 398.62 420.31 398.94 421.23 C 397.05 425.72 395.30 430.42 391.83 433.98 C 389.97 433.40 388.12 432.82 386.26 432.26 C 385.81 434.92 385.34 437.58 384.85 440.24 C 386.50 441.08 388.13 441.97 389.76 442.87 C 390.27 445.74 389.66 448.60 389.17 451.43 C 390.65 453.11 392.85 454.57 393.31 456.86 C 392.53 460.91 391.41 464.89 390.86 468.99 C 387.93 468.73 385.12 467.78 382.24 467.34 C 381.89 467.60 381.20 468.11 380.85 468.37 C 378.02 468.45 377.53 471.16 377.20 473.39 C 376.05 474.18 374.91 474.99 373.78 475.82 C 371.65 474.38 369.51 472.98 367.38 471.55 C 364.98 471.40 362.56 471.26 360.20 470.75 C 358.07 469.55 357.69 466.91 357.21 464.75 C 355.00 463.60 352.54 462.44 350.24 464.11 C 349.37 467.07 349.15 470.19 349.91 473.21 C 348.61 474.45 347.33 475.70 346.07 476.99 C 347.11 478.27 348.07 479.62 348.92 481.05 C 348.11 482.88 347.33 484.72 346.42 486.51 C 345.82 486.42 344.63 486.24 344.03 486.14 C 343.64 487.00 343.26 487.86 342.88 488.73 C 339.84 489.56 336.73 489.87 333.59 489.63 C 333.53 490.11 333.40 491.07 333.34 491.56 C 331.03 491.40 328.73 491.26 326.43 491.15 C 326.39 491.72 326.32 492.86 326.29 493.43 C 323.17 493.41 320.16 494.19 317.11 494.69 C 314.18 492.68 313.08 488.73 309.78 486.94 C 309.67 485.79 309.57 484.65 309.47 483.51 C 308.18 483.18 306.88 482.86 305.60 482.54 C 302.43 480.07 298.03 482.07 294.40 480.72 C 294.00 480.98 293.20 481.51 292.80 481.78 C 290.03 481.72 287.44 480.87 285.12 479.38 C 283.96 479.80 282.82 480.28 281.70 480.81 C 280.60 480.29 279.51 479.77 278.42 479.24 C 279.15 477.00 280.29 474.94 281.36 472.87 C 280.24 471.53 279.16 470.15 277.91 468.95 C 276.04 469.33 274.31 470.14 272.54 470.81 C 268.29 469.51 264.46 467.21 261.26 464.14 C 258.65 464.46 255.61 462.31 253.46 464.46 C 251.96 465.59 252.45 467.72 252.05 469.33 C 250.36 471.48 248.12 472.85 245.58 473.80 C 245.49 474.39 245.30 475.56 245.21 476.15 C 241.64 475.07 236.31 474.73 236.09 469.92 C 234.54 470.33 232.97 470.72 231.42 471.12 C 230.21 470.51 229.07 469.79 227.86 469.20 C 227.47 468.15 227.09 467.11 226.70 466.07 C 223.57 465.37 220.37 465.48 217.19 465.45 C 213.68 464.01 210.64 461.56 207.61 459.32 C 207.08 458.02 206.66 456.69 206.35 455.32 C 203.26 455.57 200.47 457.02 197.46 457.62 C 195.48 456.32 194.34 454.08 192.47 452.64 C 190.37 451.60 188.05 451.18 185.83 450.52 C 185.17 448.73 184.46 446.95 183.58 445.27 C 181.58 444.94 179.44 444.65 177.79 443.36 C 176.30 443.38 174.83 443.51 173.35 443.60 C 170.89 442.87 170.88 439.93 170.35 437.89 C 170.03 435.72 168.80 433.87 167.57 432.11 C 168.41 427.81 168.93 423.46 169.54 419.13 C 171.04 413.15 174.07 407.08 172.10 400.84 C 175.71 396.73 172.37 391.60 171.53 387.13 C 170.37 381.68 167.35 376.92 164.20 372.42 C 163.22 372.47 162.24 372.53 161.26 372.59 C 160.49 370.96 159.74 369.33 158.97 367.72 C 154.66 367.19 150.40 365.54 146.02 366.28 C 145.36 364.05 143.63 362.33 141.72 361.11 C 139.17 360.62 136.52 361.24 133.93 361.20 C 130.16 358.07 124.92 359.68 120.87 357.26 C 118.03 355.89 114.75 356.60 111.72 356.32 C 111.20 352.62 110.89 348.84 109.33 345.40 C 109.92 343.77 111.92 343.21 113.14 342.16 C 112.65 341.10 112.16 340.05 111.66 339.01 C 109.83 339.27 108.01 339.89 106.15 339.82 C 104.51 339.09 103.61 337.39 102.42 336.15 C 103.41 334.13 104.49 332.14 105.25 330.02 C 104.35 327.07 102.61 324.44 101.22 321.70 C 100.57 321.72 99.28 321.75 98.63 321.76 C 96.85 319.03 95.70 315.96 95.81 312.66 C 95.44 312.39 94.71 311.85 94.34 311.58 C 94.37 310.92 94.42 309.58 94.45 308.91 C 93.29 308.67 92.13 308.43 90.98 308.19 C 89.92 305.54 88.32 302.97 88.39 300.02 C 88.83 297.39 86.43 295.85 85.20 293.87 C 85.36 291.18 86.35 288.63 86.63 285.96 C 86.96 282.84 84.75 280.10 84.83 277.04 C 86.83 272.90 89.06 268.87 91.56 265.02 C 91.02 262.19 90.52 259.36 89.96 256.54 C 88.55 255.83 87.15 255.10 85.75 254.35 C 85.45 252.71 85.16 251.07 84.83 249.43 C 82.10 249.36 79.42 248.77 76.69 248.66 C 74.93 244.47 75.40 239.91 75.61 235.50 C 73.83 234.80 72.10 233.71 70.12 233.78 C 65.62 233.24 62.10 236.63 57.99 237.73 C 55.16 237.72 52.91 235.57 50.56 234.25 C 52.63 229.97 51.56 225.42 50.62 221.03 C 51.98 217.51 53.34 213.99 54.55 210.41 C 55.14 207.98 57.79 207.32 59.63 206.08 C 60.23 202.31 59.36 197.70 62.74 195.03 C 63.05 192.29 61.48 190.00 60.08 187.81 C 60.99 186.44 61.87 185.04 63.02 183.86 C 65.43 184.25 66.51 186.92 68.30 188.30 C 69.83 184.54 69.95 180.50 69.90 176.50 C 69.23 175.69 68.57 174.87 67.91 174.06 C 67.95 172.02 67.88 169.98 68.10 167.96 C 69.12 166.43 70.63 165.33 71.89 164.01 C 71.57 163.40 70.94 162.17 70.62 161.56 C 68.39 160.80 66.17 160.02 63.96 159.21 C 64.50 157.15 65.07 155.10 65.65 153.05 C 63.67 153.16 61.70 153.28 59.72 153.39 C 59.39 151.71 59.06 150.02 58.76 148.34 C 60.05 147.14 61.38 146.00 62.78 144.93 C 59.76 142.98 61.46 139.29 60.98 136.37 C 59.96 135.22 58.80 134.21 57.68 133.18 C 59.79 130.53 58.58 127.16 58.24 124.15 C 59.91 123.47 61.60 122.82 63.32 122.27 C 64.41 125.29 65.68 128.36 67.97 130.69 C 70.44 131.09 70.49 128.36 71.25 126.76 C 73.51 126.84 76.10 126.89 77.00 129.41 C 79.00 130.18 80.94 131.21 83.05 131.62 C 85.68 131.00 88.56 129.02 91.11 130.96 C 95.65 134.51 101.04 137.81 106.98 137.79 C 108.70 139.61 110.45 141.39 112.25 143.12 C 115.43 142.25 118.15 140.36 121.10 138.97 C 123.35 139.16 125.53 139.83 127.77 140.11 C 130.53 138.41 131.15 134.52 134.28 133.30 C 138.66 131.21 143.61 132.45 148.26 132.24 C 149.79 131.01 150.56 128.38 152.92 128.70 C 155.23 128.18 156.11 130.44 157.41 131.82 C 159.33 131.56 160.94 130.41 162.65 129.59 C 160.04 127.32 161.19 123.99 161.26 121.03 C 162.58 120.58 164.85 121.33 165.32 119.55 C 166.60 115.79 168.07 112.00 167.97 107.95 C 167.85 103.92 172.08 102.20 175.26 101.13 C 178.92 100.11 177.64 95.42 178.43 92.55 C 179.85 92.66 181.25 92.89 182.67 93.05 C 182.92 90.65 183.19 88.24 183.43 85.84 C 184.96 85.84 186.50 85.84 188.04 85.82 C 188.23 84.86 188.43 83.89 188.63 82.93 C 191.30 80.46 193.55 77.48 194.23 73.83 C 192.98 73.35 191.73 72.86 190.48 72.36 C 191.58 70.44 192.71 68.54 193.82 66.62 C 194.63 66.71 195.43 66.81 196.25 66.90 C 197.69 64.93 199.51 63.28 201.40 61.74 C 200.57 61.11 199.75 60.48 198.93 59.86 C 199.08 57.35 198.66 54.48 201.03 52.83 C 202.79 51.77 201.93 49.55 202.31 47.87 C 203.67 47.48 205.04 47.09 206.41 46.69 C 207.21 45.29 206.96 42.35 209.18 42.55 C 211.97 42.60 214.73 42.98 217.51 43.20 C 217.76 41.65 218.01 40.11 218.26 38.57 C 219.55 38.11 220.86 37.66 222.17 37.21 C 222.80 35.15 223.41 33.07 223.99 30.99 C 226.16 30.83 228.41 30.97 230.54 30.41 C 231.56 29.58 232.14 28.33 232.93 27.29 C 235.00 28.40 237.09 29.48 239.30 30.30 Z" fill="#36512e" opacity="1.00" stroke="#36512e" stroke-width="0.25"/>
</svg>